<svg xmlns="http://www.w3.org/2000/svg" xmlns:xlink="http://www.w3.org/1999/xlink" width="159.984" height="128.976" viewBox="0 0 159.984 128.976"><defs><style>.a{opacity:0.96;}.b{fill:#f2f2f2;}.c{opacity:0.5;}.d{fill:url(#a);}.e{opacity:0.02;}.f{fill:url(#b);}.g{fill:#fccc63;}.h{fill:#6c63ff;}.i{opacity:0.05;}.j,.p{fill:#fff;}.k,.p{opacity:0.2;}.l{fill:url(#c);}.m{fill:url(#d);}.n{fill:#ca7070;}.o{fill:#00695c;}.q{fill:#263238;}.r{fill:#ff5252;}.s{fill:#f6b9ad;}.t{fill:none;stroke:#b3b3b3;stroke-miterlimit:10;}.u{fill:url(#e);}.v{fill:#69f0ae;}</style><linearGradient id="a" x1="0.5" y1="1" x2="0.5" gradientUnits="objectBoundingBox"><stop offset="0" stop-color="gray" stop-opacity="0.251"/><stop offset="0.54" stop-color="gray" stop-opacity="0.122"/><stop offset="1" stop-color="gray" stop-opacity="0.102"/></linearGradient><linearGradient id="b" x1="0.5" y1="1" x2="0.5" y2="0" xlink:href="#a"/><linearGradient id="c" x1="38824.68" y1="4.008" x2="38824.68" y2="1.002" xlink:href="#a"/><linearGradient id="d" x1="170.49" y1="0.999" x2="170.49" y2="-0.002" xlink:href="#a"/><linearGradient id="e" x1="4.134" y1="3.41" x2="4.134" y2="2.409" gradientUnits="objectBoundingBox"><stop offset="0" stop-opacity="0.122"/><stop offset="0.55" stop-opacity="0.09"/><stop offset="1" stop-opacity="0.02"/></linearGradient></defs><g class="a" transform="translate(0.04)"><rect class="b" width="36.392" height="3.93" rx="1.965" transform="translate(115.261 4.513)"/><rect class="b" width="36.392" height="3.93" rx="1.965" transform="translate(123.412 7.861)"/><rect class="b" width="36.392" height="3.93" rx="1.965" transform="translate(109.582 10.773)"/><rect class="b" width="36.392" height="3.93" rx="1.965" transform="translate(52.956 49.495)"/><rect class="b" width="36.392" height="3.93" rx="1.965" transform="translate(61.107 52.843)"/><rect class="b" width="36.392" height="3.93" rx="1.965" transform="translate(47.277 55.753)"/><g class="c" transform="translate(-0.04 97.184)"><path class="d" d="M312.925,657.595c-.873,0-20.963,8.735-44.254-14.266-12.648-12.489-25.038-13.819-33.72-12.426a26.112,26.112,0,0,0-14.067,7.235c-3.1,3.047-10.615,7.2-28.215,6.066-27.076-1.747-34.209,17.615-34.209,17.615H318.444S313.793,657.595,312.925,657.595Z" transform="translate(-158.46 -630.461)"/></g><path class="b" d="M158.5,664.226s7.133-19.361,34.209-17.615c17.6,1.14,25.114-3.018,28.208-6.064a26.016,26.016,0,0,1,14.052-7.235c8.682-1.393,21.073-.063,33.72,12.426,23.291,23,43.38,14.266,44.254,14.266s5.531,4.221,5.531,4.221Z" transform="translate(-158.533 -535.25)"/><path class="e" d="M158.5,664.226s7.133-19.361,34.209-17.615c17.6,1.14,25.114-3.018,28.208-6.064a26.016,26.016,0,0,1,14.052-7.235c8.682-1.393,21.073-.063,33.72,12.426,23.291,23,43.38,14.266,44.254,14.266s5.531,4.221,5.531,4.221Z" transform="translate(-158.533 -535.25)"/><rect class="b" width="36.392" height="3.93" rx="1.965" transform="translate(16.562 22.418)"/><rect class="b" width="36.392" height="3.93" rx="1.965" transform="translate(24.715 25.766)"/><rect class="b" width="36.392" height="3.93" rx="1.965" transform="translate(10.885 28.677)"/><g class="c" transform="translate(21.367 0)"><circle class="f" cx="14.703" cy="14.703" r="14.703"/></g><circle class="g" cx="13.101" cy="13.101" r="13.101" transform="translate(22.968 1.602)"/><rect class="h" width="11.396" height="8.467" transform="translate(29.134 107.011)"/><path class="h" d="M313.341,653.359l6.368-6.369a.5.5,0,0,1,.7,0l6.318,6.318a.5.5,0,0,1-.35.848l-12.683.051a.5.5,0,0,1-.357-.848Z" transform="translate(-285.199 -546.692)"/><path class="i" d="M313.341,653.359l6.368-6.369a.5.5,0,0,1,.7,0l6.318,6.318a.5.5,0,0,1-.35.848l-12.683.051a.5.5,0,0,1-.357-.848Z" transform="translate(-285.199 -546.692)"/><path class="j" d="M185.806,616.28h.228a1.286,1.286,0,0,1,1.286,1.286V620.1h-2.8v-2.537A1.286,1.286,0,0,1,185.806,616.28Z" transform="translate(-151.121 -504.621)"/><circle class="j" cx="0.701" cy="0.701" r="0.701" transform="translate(34.162 101.154)"/><rect class="j" width="2.674" height="2.036" transform="translate(30.025 108.093)"/><rect class="h" width="0.255" height="2.036" transform="translate(31.234 108.093)"/><rect class="j" width="2.674" height="2.036" transform="translate(37.155 108.093)"/><rect class="h" width="0.255" height="2.036" transform="translate(38.365 108.093)"/><g class="k" transform="translate(81.942 98.044)"><path class="l" d="M610.953,635.209Z" transform="translate(-610.942 -635.207)"/></g><g class="k" transform="translate(81.716 97.91)"><path class="m" d="M610.2,639.865h.022a.025.025,0,0,0,.016-.022.059.059,0,0,0,0-.022V639.8c-.018-.043-.06-.1-.083-.152l-.011-.027a.2.2,0,0,1,0-.036v-.016l.391-1.285h0l.009-.031a1.2,1.2,0,0,1,.627.641,1,1,0,0,1,.011.643h0l-.009.022h.009v.236h.543c.038-.018-.013-.065-.063-.112l-.013-.013-.033-.034h0a.168.168,0,0,1-.023-.034l-.009-.022v-.013h-.016v-.02a1.85,1.85,0,0,0-.554-1.75h0a1.9,1.9,0,0,0,0-1.2,2.422,2.422,0,0,0,1.031-1.674,1.283,1.283,0,0,0,0-.149s.085-.071,0-.2v-.011h-.069a.269.269,0,0,0-.111.036s-.056.181,0,.228h-.014s-.585,1.268-.977,1.449l-.027-.016v-.165a.216.216,0,0,0,0-.022h0c0-.007,0-.013,0-.02a.442.442,0,0,0,.118-.089h0a.425.425,0,0,0,.036-.043h0l.015-.022h0l.015-.025h0l.011-.024h0a.439.439,0,0,0,.02-.052h0v-.022h0v-.027h0v-.022h0V635.7a.439.439,0,0,0-.027-.152.063.063,0,0,0-.016-.04l-.009-.02-.013-.022a.146.146,0,0,1,.034-.031.205.205,0,0,1,.081-.025h.085a.125.125,0,0,0,.029-.016.132.132,0,0,1,.047-.025h-.227l-.029-.013a.157.157,0,0,0,.047.011h.073l.011-.009h0v-.014h-.033a.275.275,0,0,1-.074,0h-.076l-.022-.009h0a.12.12,0,1,0,.082-.225l.02-.013a.106.106,0,0,0,.036-.071.08.08,0,0,0,0-.034l-.013.011h-.011a.181.181,0,0,1-.118.033h-.014a.547.547,0,0,1-.107-.04l-.031-.011h-.165a.552.552,0,0,0-.362.152.54.54,0,0,0-.062.072.71.71,0,0,1,.071-.386h-.044l-.016.031a.361.361,0,0,1,.049-.123h-.011a.147.147,0,0,0,0-.2c-.085-.129-.243-.029-.243-.029a.66.66,0,0,0-.025.129l-.025-.011a2.46,2.46,0,0,0,.181,1.939c0,.015,0,.03,0,.045v1.21l-.362,1.66h0l-.071.313.509.083Zm.091-3.923a.441.441,0,0,0,.094.06.2.2,0,0,0,0,.034v.158l-.031.015c-.024-.078-.044-.169-.065-.266Z" transform="translate(-609.7 -634.467)"/></g><path class="n" d="M621.321,635.606s.094-.08,0-.221-.268-.031-.268-.031-.063.2,0,.252S621.321,635.606,621.321,635.606Z" transform="translate(-537.256 -537.25)"/><path class="o" d="M617.28,666.09h.435a.143.143,0,0,0,.042.112c.058.067.181.149.121.181h-.6Z" transform="translate(-534.19 -562.45)"/><path class="p" d="M619.54,666.2a.143.143,0,0,1-.042-.112h.031a.144.144,0,0,0,.042.112c.058.067.181.149.121.181h-.031C619.716,666.351,619.6,666.269,619.54,666.2Z" transform="translate(-536.006 -562.45)"/><path class="o" d="M608.392,665.6l.413.073a.208.208,0,0,0,.018.143c.045.092.145.212.085.237l-.589-.1Z" transform="translate(-526.853 -562.049)"/><path class="o" d="M609.2,635.865a2.584,2.584,0,0,0,.315,2.283l.227-.181s-.462-1.6-.2-1.98C609.08,635.843,609.2,635.865,609.2,635.865Z" transform="translate(-527.459 -537.7)"/><path class="n" d="M610.261,635.256s.094-.08,0-.221-.268-.031-.268-.031-.063.2,0,.252S610.261,635.256,610.261,635.256Z" transform="translate(-528.2 -536.963)"/><path class="p" d="M609.115,665.825a.209.209,0,0,1-.018-.143l-.377-.062h0l.413.069a.209.209,0,0,0,.018.143c.045.092.145.212.085.237h-.025C609.251,666.026,609.158,665.914,609.115,665.825Z" transform="translate(-527.181 -562.065)"/><rect class="n" width="0.442" height="0.656" rx="0.221" transform="translate(82.67 100.188) rotate(180)"/><path class="p" d="M611.354,639.083s-.457-1.583-.208-1.973h.047c-.259.377.2,1.98.2,1.98l-.227.181-.02-.022Z" transform="translate(-529.107 -538.721)"/><circle class="n" cx="0.489" cy="0.489" r="0.489" transform="translate(81.95 98.784)"/><path class="p" d="M613.766,640.465v-.214a.217.217,0,0,0,0-.047.489.489,0,0,0-.2-.924h.027a.489.489,0,0,1,.225.924.225.225,0,0,1,0,.047v.214a.221.221,0,0,1-.221.221h-.027A.221.221,0,0,0,613.766,640.465Z" transform="translate(-531.152 -540.498)"/><path class="o" d="M610.95,647.172s.944.107.978,0a2.087,2.087,0,0,0,0-1.343.489.489,0,0,0-.489-.489h0a.489.489,0,0,0-.489.489Z" transform="translate(-529.007 -545.46)"/><path class="q" d="M609.026,655.45l-.426,1.957h.426l.442-1.449a1.361,1.361,0,0,1,.694.71,1.039,1.039,0,0,1,0,.741h.458v-.022a2.034,2.034,0,0,0-.62-1.937h0" transform="translate(-527.083 -553.738)"/><path class="p" d="M613.928,647.18a2.087,2.087,0,0,0,0-1.343.489.489,0,0,0-.458-.487h.031a.489.489,0,0,1,.489.489,2.088,2.088,0,0,1,0,1.343c-.013.038-.141.049-.3.047C613.827,647.225,613.928,647.213,613.928,647.18Z" transform="translate(-531.07 -545.468)"/><path class="o" d="M614.575,638.944s1.268-.884,1.136-2h-.283s-.679,1.468-1.112,1.611S614.575,638.944,614.575,638.944Z" transform="translate(-531.647 -538.582)"/><g class="k" transform="translate(81.88 101.719)"><path class="j" d="M611.1,658.314l-.433,1.426H610.6l.442-1.449Z" transform="translate(-610.6 -657.783)"/><path class="j" d="M616,655.49h.063a2.035,2.035,0,0,1,.62,1.937v.022h-.063v-.022A2.035,2.035,0,0,0,616,655.49Z" transform="translate(-615.022 -655.49)"/></g><path class="p" d="M617.34,637h.047c.127,1.121-1.136,2-1.136,2l-.031-.013C616.361,638.888,617.457,638.049,617.34,637Z" transform="translate(-533.322 -538.631)"/><path class="q" d="M611.593,638.575a.81.81,0,0,0-.056.2.529.529,0,0,1-.225.344.5.5,0,0,1-.219.06.419.419,0,0,1-.324-.1.4.4,0,0,1-.1-.2.678.678,0,0,1,.181-.623.6.6,0,0,1,.625-.132.6.6,0,0,0,.12.043.2.2,0,0,0,.181-.058.109.109,0,0,1-.105.141.3.3,0,0,0,.234.013.2.2,0,0,1-.25.1.667.667,0,0,0,.283.058c-.02,0-.06.038-.085.045a.552.552,0,0,1-.094,0A.181.181,0,0,0,611.593,638.575Z" transform="translate(-528.763 -539.521)"/><g class="k" transform="translate(82.296 98.564)"><path class="j" d="M616.036,638.361a.3.3,0,0,0,.116.029.305.305,0,0,1-.152-.029.111.111,0,0,0,.111-.12l.025-.022a.109.109,0,0,1-.1.141Z" transform="translate(-615.438 -638.194)"/><path class="j" d="M614.3,638.16a.6.6,0,0,1-.12-.043.545.545,0,0,0-.181-.038.543.543,0,0,1,.219.038.6.6,0,0,0,.12.043h.016A.184.184,0,0,1,614.3,638.16Z" transform="translate(-613.801 -638.078)"/><path class="j" d="M616.108,639.713c.025,0,.065-.045.085-.045a.669.669,0,0,1-.283-.058.181.181,0,0,0,.063.013.669.669,0,0,0,.252.043c-.02,0-.06.038-.085.045a.213.213,0,0,1-.065,0Z" transform="translate(-615.365 -639.333)"/><path class="j" d="M612.9,640.923a.5.5,0,0,0,.219-.06.529.529,0,0,0,.225-.344.812.812,0,0,1,.056-.2.181.181,0,0,1,.154-.1h.031a.181.181,0,0,0-.154.1.812.812,0,0,0-.056.2.529.529,0,0,1-.225.344.5.5,0,0,1-.219.06Z" transform="translate(-612.9 -639.832)"/><path class="j" d="M616.41,639.174a.2.2,0,0,0,.161-.1l.036-.011A.2.2,0,0,1,616.41,639.174Z" transform="translate(-615.774 -638.882)"/></g><path class="p" d="M621.81,635.6s.094-.08,0-.221a.15.15,0,0,0-.118-.072.154.154,0,0,1,.149.072c.094.141,0,.221,0,.221a.858.858,0,0,1-.181.02A.938.938,0,0,0,621.81,635.6Z" transform="translate(-537.777 -537.243)"/><path class="r" d="M633.787,627.215a2.584,2.584,0,0,0,.315,2.283l.226-.181s-.462-1.6-.2-1.98C633.67,627.193,633.787,627.215,633.787,627.215Z" transform="translate(-547.594 -530.617)"/><path class="s" d="M634.851,626.616s.094-.08,0-.221-.268-.031-.268-.031-.063.2,0,.252S634.851,626.616,634.851,626.616Z" transform="translate(-548.335 -529.888)"/><rect class="s" width="0.442" height="0.656" rx="0.221" transform="translate(87.125 98.623) rotate(180)"/><path class="p" d="M635.944,630.473s-.457-1.583-.208-1.973h.047c-.259.377.2,1.98.2,1.98l-.227.181-.02-.022Z" transform="translate(-549.242 -531.671)"/><circle class="s" cx="0.489" cy="0.489" r="0.489" transform="translate(86.405 97.217)"/><path class="p" d="M638.356,631.823v-.212a.225.225,0,0,0,0-.047.489.489,0,0,0-.2-.924h.027a.489.489,0,0,1,.225.924.217.217,0,0,1,0,.047v.214a.221.221,0,0,1-.221.221h-.027a.221.221,0,0,0,.192-.223Z" transform="translate(-551.287 -533.423)"/><path class="r" d="M635.54,638.5s.944.107.978,0c.112-.344-.181-.725-.038-.906a.448.448,0,0,0,.038-.442.489.489,0,0,0-.489-.489h0a.489.489,0,0,0-.489.489Z" transform="translate(-549.142 -538.353)"/><path class="p" d="M638.562,637.631a.447.447,0,0,0,.038-.442.489.489,0,0,0-.489-.489h-.031a.489.489,0,0,1,.458.487.448.448,0,0,1-.038.442c-.152.181.15.554.038.906-.011.033-.109.045-.237.047.159,0,.288-.009.3-.047C638.712,638.186,638.41,637.813,638.562,637.631Z" transform="translate(-551.222 -538.385)"/><path class="s" d="M635.769,646.63h0a2.8,2.8,0,0,1,.4,1.937v.022h-.294a1.577,1.577,0,0,0,0-.741,1.17,1.17,0,0,0-.446-.71l-.284,1.449h-.274l.274-1.957Z" transform="translate(-548.593 -546.516)"/><path class="s" d="M647.8,629.6s.114-.047.065-.212-.246-.109-.246-.109-.121.181-.074.241S647.8,629.6,647.8,629.6Z" transform="translate(-558.959 -532.301)"/><path class="r" d="M638.376,632.3s1.466-.475,1.674-1.584l-.272-.083s-1.087,1.2-1.536,1.214S638.376,632.3,638.376,632.3Z" transform="translate(-551.215 -533.415)"/><path class="p" d="M641.234,631.1l.045.015c-.208,1.109-1.674,1.583-1.674,1.583l-.025-.02C639.752,632.616,641.04,632.135,641.234,631.1Z" transform="translate(-552.45 -533.8)"/><g class="k" transform="translate(86.483 100.114)"><path class="j" d="M636.294,649.42l-.284,1.449h.063l.275-1.41A.657.657,0,0,0,636.294,649.42Z" transform="translate(-636.01 -648.914)"/><path class="j" d="M639.543,646.63h-.063a2.8,2.8,0,0,1,.4,1.937v.022h.058v-.022a2.8,2.8,0,0,0-.393-1.937Z" transform="translate(-638.851 -646.63)"/></g><path class="p" d="M648.14,629.575s.114-.047.065-.212a.15.15,0,0,0-.091-.1.154.154,0,0,1,.121.112c.049.163-.065.212-.065.212a.852.852,0,0,1-.181-.034A.93.93,0,0,0,648.14,629.575Z" transform="translate(-559.336 -532.293)"/><path class="q" d="M632.854,646.51l-.594,1.254a7.359,7.359,0,0,1,1.034.125,1.107,1.107,0,0,0,.971-.181l-.422-1.2Z" transform="translate(-546.456 -546.418)"/><path class="r" d="M634.993,657.4s.313.063.25.181h-.563l.031-.181Z" transform="translate(-548.438 -555.335)"/><path class="r" d="M640.523,657.4s.313.063.25.181h-.563l.031-.181Z" transform="translate(-552.966 -555.335)"/><path class="g" d="M632.8,630.137s-.752,1.065-.408,1.5l-1.346-.031S631.425,629.2,632.8,630.137Z" transform="translate(-545.465 -532.833)"/><path class="p" d="M632.8,630.154a1.142,1.142,0,0,0-.525-.214,1.327,1.327,0,0,1,.362.181s-.752,1.065-.408,1.5l-1.185-.027v.027l1.346.031C632.044,631.219,632.8,630.154,632.8,630.154Z" transform="translate(-545.457 -532.85)"/><path class="p" d="M639.674,646.51h-.094L640,647.7a.957.957,0,0,1-.623.217,1,1,0,0,0,.725-.217Z" transform="translate(-552.286 -546.418)"/><path class="p" d="M636.123,657.4h-.063s.313.063.25.181h.063C636.437,657.462,636.123,657.4,636.123,657.4Z" transform="translate(-549.568 -555.335)"/><path class="p" d="M641.653,657.4h-.063s.313.063.25.181h.063C641.967,657.462,641.653,657.4,641.653,657.4Z" transform="translate(-554.096 -555.335)"/><path class="t" d="M717.627,352.243l-1.747-9.755,5.531-.27v10.025H725.2l3.785-10.773" transform="translate(-586.208 -279.602)"/><rect class="h" width="15.14" height="10.773" rx="5.387" transform="translate(127.633 71.621)"/><path class="i" d="M873.693,489.37h-4.366a5.4,5.4,0,0,0-5.387,5.387h0a2.993,2.993,0,0,0,.015.362,5.4,5.4,0,0,1,5.372-5.022h4.366a5.4,5.4,0,0,1,5.372,5.022c0-.12.014-.241.014-.362h0A5.4,5.4,0,0,0,873.693,489.37Z" transform="translate(-736.16 -417.749)"/><path class="u" d="M729.919,407.941l-1.43-1.121-3.457,4.379-1.859-1.44-1.163,1.478,2.7,2.065h0l.67.538Z" transform="translate(-591.228 -333.112)"/><path class="v" d="M730.583,408.373l-1.3-.993-3.433,4.479-1.908-1.464-.995,1.3,2.556,1.957h0l.656.491Z" transform="translate(-591.997 -333.57)"/><path class="f" d="M833.442,226.665c0,12.44-10.393,22.525-21.457,22.525S789.58,239.1,789.58,226.665s11.34-22.525,22.407-22.525S833.442,214.225,833.442,226.665Z" transform="translate(-675.272 -184.197)"/><path class="h" d="M837.041,231.463c0,11.858-9.905,21.47-20.454,21.47s-21.358-9.612-21.358-21.47S806.043,210,816.589,210,837.041,219.6,837.041,231.463Z" transform="translate(-679.899 -188.996)"/><rect class="h" width="4.745" height="1.658" transform="translate(133.413 64.691)"/><g class="k" transform="translate(135.937 20.923)"><path d="M909.714,209.55c-.252,0-.5,0-.754.018,10.26.444,19.7,9.876,19.7,21.452s-9.44,21.008-19.693,21.452c.252.011.5.018.754.018,10.547,0,20.454-9.612,20.454-21.47S920.26,209.55,909.714,209.55Z" transform="translate(-908.96 -209.55)"/></g><g class="k" transform="translate(115.636 21.004)"><path class="j" d="M797.814,231.463c0-11.688,10.509-21.2,20.9-21.463h-.451c-10.547,0-21.358,9.612-21.358,21.47s10.809,21.47,21.356,21.47h.451C808.317,252.657,797.814,243.156,797.814,231.463Z" transform="translate(-796.91 -210)"/></g><rect class="h" width="13.636" height="4.444" transform="translate(129.195 60.924)"/><path class="p" d="M839.219,212.564s-16.2,18.513,0,39.813l5.349-.018s-14.765-17.6-.678-41.128l-2.633.6Z" transform="translate(-710.024 -190.003)"/><path class="p" d="M925.328,211.555s16.2,18.8,0,40.1l-5.348-.018s14.764-17.756.678-41.282l2.636.527Z" transform="translate(-782.046 -189.282)"/></g></svg>