<svg xmlns="http://www.w3.org/2000/svg" width="292.5" height="293.375" viewBox="0 0 292.5 293.375"><defs><style>.a{fill:#f2f2f2;}.b{fill:#e6e6e6;}.c{fill:#fff;}.d{fill:#ccc;}.e{fill:#6c63ff;}.f{fill:#3f3d56;}.g{fill:#ffb8b8;}.h{fill:#2f2e41;}</style></defs><g transform="translate(0 -0.001)"><path class="a" d="M255.7,677.833l-2.576-10.16a131.9,131.9,0,0,0-14-5.022l-.325,4.722-1.319-5.2c-5.9-1.686-9.912-2.428-9.912-2.428s5.419,20.612,16.789,36.371l13.247,2.327-10.291,1.484a53.38,53.38,0,0,0,4.6,4.878c16.538,15.351,34.959,22.395,41.144,15.731s-2.209-24.509-18.747-39.859A70.288,70.288,0,0,0,256.3,669.091Z" transform="translate(-227.576 -430.689)"/><path class="a" d="M331.554,631.275l3.047-10.029a131.908,131.908,0,0,0-9.385-11.534l-2.719,3.874,1.56-5.135c-4.179-4.491-7.23-7.2-7.23-7.2s-6.014,20.447-4.428,39.813l10.137,8.84-9.579-4.049a53.374,53.374,0,0,0,1.419,6.556c6.223,21.69,18.351,37.241,27.089,34.734s10.778-22.123,4.555-43.813a70.277,70.277,0,0,0-9.434-19.228Z" transform="translate(-278.927 -395.167)"/><path class="b" d="M521.8,145.963h-1.607V101.941A25.479,25.479,0,0,0,494.71,76.462H401.441a25.479,25.479,0,0,0-25.479,25.479V343.45a25.479,25.479,0,0,0,25.479,25.479H494.71a25.479,25.479,0,0,0,25.479-25.479V177.3H521.8Z" transform="translate(-317.691 -76.461)"/><path class="c" d="M506.61,93.335H494.437a9.04,9.04,0,0,1-8.371,12.454H432.634a9.04,9.04,0,0,1-8.37-12.454H412.893a19.028,19.028,0,0,0-19.028,19.028V353.521a19.028,19.028,0,0,0,19.028,19.028H506.61a19.028,19.028,0,0,0,19.028-19.028h0V112.362a19.028,19.028,0,0,0-19.027-19.027Z" transform="translate(-328.564 -86.709)"/><path class="d" d="M516.389,323.113a9.6,9.6,0,0,1,4.8-8.316,9.6,9.6,0,1,0,0,16.63A9.6,9.6,0,0,1,516.389,323.113Z" transform="translate(-397.143 -220.421)"/><path class="d" d="M547.126,323.113a9.6,9.6,0,0,1,4.8-8.316,9.6,9.6,0,1,0,0,16.63A9.6,9.6,0,0,1,547.126,323.113Z" transform="translate(-415.81 -220.421)"/><circle class="e" cx="9.601" cy="9.601" r="9.601" transform="translate(133.511 93.09)"/><path class="d" d="M543.224,321.575H487.264a2.012,2.012,0,0,1-2.009-2.009V263.606a2.012,2.012,0,0,1,2.009-2.009h55.959a2.012,2.012,0,0,1,2.009,2.009v55.959A2.012,2.012,0,0,1,543.224,321.575ZM487.264,262.4a1.207,1.207,0,0,0-1.206,1.206v55.959a1.207,1.207,0,0,0,1.206,1.206h55.959a1.207,1.207,0,0,0,1.206-1.206V263.607a1.207,1.207,0,0,0-1.206-1.206Z" transform="translate(-384.065 -188.894)"/><rect class="d" width="85.825" height="0.804" transform="translate(85.829 175.576)"/><circle class="e" cx="2.71" cy="2.71" r="2.71" transform="translate(85.829 165.137)"/><rect class="d" width="85.825" height="0.804" transform="translate(85.829 202.679)"/><circle class="e" cx="2.71" cy="2.71" r="2.71" transform="translate(85.829 192.24)"/><path class="e" d="M616.012,651H588.889a1.769,1.769,0,0,1-1.767-1.767v-9.507a1.769,1.769,0,0,1,1.767-1.767h27.123a1.769,1.769,0,0,1,1.767,1.767v9.506A1.769,1.769,0,0,1,616.012,651Z" transform="translate(-445.929 -417.463)"/><circle class="e" cx="2.71" cy="2.71" r="2.71" transform="translate(94.67 165.137)"/><circle class="e" cx="2.71" cy="2.71" r="2.71" transform="translate(103.511 165.137)"/><circle class="e" cx="2.71" cy="2.71" r="2.71" transform="translate(94.67 192.24)"/><circle class="e" cx="2.71" cy="2.71" r="2.71" transform="translate(103.511 192.24)"/><path class="f" d="M531.918,822.059H249.966c-.6,0-1.092-.214-1.092-.478s.489-.479,1.092-.479H531.918c.6,0,1.093.214,1.093.479S532.521,822.059,531.918,822.059Z" transform="translate(-240.51 -528.683)"/><path class="g" d="M783.493,547.533a3.967,3.967,0,0,1,.554.309l17.613-7.518.629-4.64,7.038-.043-.416,10.641-23.248,6.148a4.172,4.172,0,0,1-.176.474,4.019,4.019,0,1,1-1.995-5.373Z" transform="translate(-561.745 -355.323)"/><path class="g" d="M625.993,706.3h-4.815l-2.29-18.57h7.106Z" transform="translate(-375.852 -417.662)"/><path class="h" d="M606.922,731.518h9.285v5.846H601.076A5.846,5.846,0,0,1,606.922,731.518Z" transform="translate(-365.035 -444.252)"/><path class="g" d="M670.909,702.977l-4.791.472-4.1-18.256,7.071-.7Z" transform="translate(-402.045 -415.696)"/><path class="h" d="M5.846,0h9.285V5.846H0A5.846,5.846,0,0,1,5.846,0Z" transform="translate(254.696 287.294) rotate(-5.625)"/><circle class="g" cx="9.645" cy="9.645" r="9.645" transform="translate(241.836 141.377)"/><path class="h" d="M830.114,696.948a1.755,1.755,0,0,1-1.734-1.452c-2.492-13.833-10.637-59.064-10.832-60.317a.547.547,0,0,1-.006-.087V631.72a.585.585,0,0,1,.11-.342l1.076-1.507a.581.581,0,0,1,.449-.245c6.135-.288,26.226-1.13,27.2.082h0c.975,1.219.63,4.911.551,5.639l0,.076,9.026,57.725a1.772,1.772,0,0,1-1.459,2.016l-5.638.929a1.776,1.776,0,0,1-1.974-1.215c-1.744-5.572-7.59-24.315-9.617-31.568a.2.2,0,0,0-.385.054c.1,6.914.346,24.553.43,30.645l.009.656a1.774,1.774,0,0,1-1.607,1.781l-5.436.494C830.223,696.946,830.168,696.948,830.114,696.948Z" transform="translate(-585.863 -412.063)"/><path class="e" d="M831.722,493.866a8.064,8.064,0,0,0-3.268,4.71,44.644,44.644,0,0,0-1.918,10.665l-.611,10.839-7.562,28.734c6.554,5.545,10.334,4.285,19.156-.251s9.83,1.512,9.83,1.512l1.764-24.449,2.52-26.716a11.847,11.847,0,0,0-1.909-1.836,19.5,19.5,0,0,0-16.667-3.532Z" transform="translate(-586.362 -329.407)"/><path class="g" d="M837.549,559.579a4.131,4.131,0,0,1,.589.276l17.415-8.717.289-4.722,7.184-.5.385,10.765-23.274,7.7a4.122,4.122,0,1,1-2.589-4.8Z" transform="translate(-594.646 -361.565)"/><path class="e" d="M888.521,507.607c4.285,1.512,5.04,17.9,5.04,17.9-5.041-2.773-11.09,1.764-11.09,1.764s-1.26-4.285-2.773-9.83a9.633,9.633,0,0,1,2.016-9.074S884.235,506.094,888.521,507.607Z" transform="translate(-623.375 -337.981)"/><path class="h" d="M861.706,442.766c-1.2-.961-2.841.786-2.841.786L857.9,434.9s-6.009.72-9.854-.24-4.446,3.485-4.446,3.485a30.858,30.858,0,0,1-.12-5.408c.24-2.163,3.365-4.326,8.893-5.768s8.412,4.807,8.412,4.807C864.633,433.7,862.908,443.727,861.706,442.766Z" transform="translate(-601.578 -289.194)"/></g></svg>