<svg xmlns="http://www.w3.org/2000/svg" width="243.729" height="231.813" viewBox="0 0 243.729 231.813"><defs><style>.a{fill:#e6e6e6;}.b{fill:#fff;}.c{fill:#3f3d56;}.d{fill:#6c63ff;}.e{fill:#2f2e41;}.f{fill:#ffb6b6;}.g{opacity:0.2;}</style></defs><g transform="translate(0)"><path class="a" d="M878.452,158.754V140.89a41.1,41.1,0,0,1-26.533-19.751h0a7.806,7.806,0,0,1-4.666,1.536H833.067A58.59,58.59,0,0,0,878.452,158.754Z" transform="translate(-634.724 -113.146)"/><path class="a" d="M918.636,123.5V106.339a9.556,9.556,0,0,0-9.559-9.559H895.305v1.657a7.848,7.848,0,0,1-2.428,5.686A40.131,40.131,0,0,0,918.636,123.5Z" transform="translate(-674.907 -96.78)"/><path class="a" d="M689.186,106.309h-8.87a7.871,7.871,0,0,1-7.869-7.872V96.78H659.525a9.558,9.558,0,0,0-9.559,9.56v212.7a9.542,9.542,0,0,0,9.559,9.552h86.351a9.3,9.3,0,0,0,1.178-.072,9.564,9.564,0,0,0,8.381-9.48V162.46A78.6,78.6,0,0,1,689.186,106.309Z" transform="translate(-511.706 -96.78)"/><path class="a" d="M791.4,125.82h-18.75a77.6,77.6,0,0,0,65.211,55.15V162.916a59.613,59.613,0,0,1-46.461-37.1Z" transform="translate(-594.13 -116.291)"/><path class="b" d="M672.642,338.591a1.314,1.314,0,0,0-1.313,1.313v21.978a1.314,1.314,0,0,0,1.313,1.313h88.6a1.314,1.314,0,0,0,1.313-1.313V339.9a1.314,1.314,0,0,0-1.313-1.313Z" transform="translate(-526.059 -259.242)"/><circle class="c" cx="6.891" cy="6.891" r="6.891" transform="translate(151.177 84.759)"/><path class="a" d="M756.477,362.079a1.148,1.148,0,0,0,0,2.3h54.143a1.148,1.148,0,0,0,0-2.3Z" transform="translate(-582.495 -275.023)"/><path class="a" d="M756.477,383.079a1.148,1.148,0,0,0,0,2.3h54.143a1.148,1.148,0,0,0,0-2.3Z" transform="translate(-582.495 -289.132)"/><path class="b" d="M672.642,453.591a1.314,1.314,0,0,0-1.313,1.313v21.978a1.314,1.314,0,0,0,1.313,1.313h88.6a1.314,1.314,0,0,0,1.313-1.313V454.9a1.314,1.314,0,0,0-1.313-1.313Z" transform="translate(-526.059 -336.506)"/><circle class="c" cx="6.891" cy="6.891" r="6.891" transform="translate(151.177 122.495)"/><path class="a" d="M756.477,477.079a1.148,1.148,0,1,0,0,2.3h54.143a1.148,1.148,0,1,0,0-2.3Z" transform="translate(-582.495 -352.287)"/><path class="a" d="M756.477,498.079a1.148,1.148,0,1,0,0,2.3h54.143a1.148,1.148,0,1,0,0-2.3Z" transform="translate(-582.495 -366.396)"/><path class="b" d="M672.642,568.591a1.314,1.314,0,0,0-1.313,1.313v21.978a1.314,1.314,0,0,0,1.313,1.313h88.6a1.314,1.314,0,0,0,1.313-1.313V569.9a1.314,1.314,0,0,0-1.313-1.313Z" transform="translate(-526.059 -413.77)"/><circle class="c" cx="6.891" cy="6.891" r="6.891" transform="translate(151.177 160.232)"/><path class="a" d="M756.477,592.079a1.149,1.149,0,0,0,0,2.3h54.143a1.148,1.148,0,0,0,0-2.3Z" transform="translate(-582.495 -429.55)"/><path class="a" d="M756.477,613.079a1.149,1.149,0,0,0,0,2.3h54.143a1.148,1.148,0,1,0,0-2.3Z" transform="translate(-582.495 -443.659)"/><circle class="d" cx="16.407" cy="16.407" r="16.407" transform="translate(174.475 191.077)"/><path class="b" d="M571.394,614.159h-8.86V605.3h-1.969v8.86h-8.86v1.969h8.86v8.86h1.969v-8.86h8.86Z" transform="translate(-370.667 -406.675)"/><path class="e" d="M309.861,744.732l.524,3.86s13.34,4.56,10.733,6.648-23.684,2.187-24.123,1-.537-6.332.652-6.771,3.387-4.854,3.387-4.854Z" transform="translate(-274.356 -532.032)"/><path class="e" d="M98.449,406.744l-8.365,51.981L86.2,489.5l-12.547-.6,4.182-51.085,10.755-28.978Z" transform="translate(-49.485 -273.274)"/><path class="f" d="M395.978,503.524l1.195,4.78s4.481,12.547.6,11.95-5.676-11.352-5.676-11.352l-.6-3.884Z" transform="translate(-338.051 -370.054)"/><path class="e" d="M286.8,470.537l9.261,40.928,11.352,48.1,10.755-3.884L310.4,516.842s1.195-8.365,0-12.547-1.195-22.406-1.195-22.406l8.962-7.767V459.193l-23.6-2.1Z" transform="translate(-267.711 -338.86)"/><path class="e" d="M355.753,754.608l.577,3.852s13.4,4.377,10.823,6.5-23.652,2.511-24.107,1.328-.623-6.324.56-6.779,3.32-4.9,3.32-4.9Z" transform="translate(-305.269 -538.747)"/><circle class="f" cx="8.962" cy="8.962" r="8.962" transform="translate(46.425 55.051)"/><path class="f" d="M129.786,191.435l-10.157,5.377,3.884,12.547H127.7l2.39-2.987-.9-1.792,7.17-5.378Z" transform="translate(-80.374 -128.617)"/><path class="d" d="M100.5,216.311l-.149-4.929-4.08-7.822-15.338,6.328,5.377,48.695,18.522,1.195-.6-20.613,2.987-22.406-1.045-6.423Z" transform="translate(-54.378 -136.763)"/><path class="e" d="M311.4,338.485l-7.194-35.92s-16.407,3.357-17.9,5.747-3.585,50.786-3.585,50.786-2.987,9.56,0,9.56,14.937-8.663,15.534-5.377,1.195,5.079,5.377,4.182S310.5,359.4,310.5,359.4s-.9,14.34.9,14.34,4.481.9,4.481-.6V341.174l7.17-25.99-7.094-6.516L312.89,311Z" transform="translate(-264.075 -235.038)"/><path class="e" d="M388.965,342.071l2.091-.6s.6,4.182.6,5.079-1.792,18.522-1.792,18.522l1.494,30.173-6.871,2.987-2.091-34.056Z" transform="translate(-331.935 -261.179)"/><path class="e" d="M368.478,266.951s-3.585-10.157,4.481-12.547,11.651.3,12.846,1.792c1.252,1.565,7.17,9.261,3.585,11.053s-5.228-.448-5.228-1.344-5.377,0-7.767.9a3.579,3.579,0,0,1-3.878-.747s-.6-2.838-2.4-1.344S368.478,266.951,368.478,266.951Z" transform="translate(-322.052 -202.042)"/><path class="a" d="M407.9,525.032a1.314,1.314,0,0,0-1.766-.572l-19.57,10a1.314,1.314,0,0,0-.572,1.766L426.3,615.122a1.314,1.314,0,0,0,1.766.571l19.57-10a1.314,1.314,0,0,0,.572-1.766Z" transform="translate(-334.254 -384.024)"/><circle class="d" cx="6.891" cy="6.891" r="6.891" transform="translate(61.024 149.942)"/><path class="b" d="M465.681,610.257a1.148,1.148,0,0,0-2.045,1.045l24.637,48.213a1.148,1.148,0,0,0,2.045-1.045Z" transform="translate(-386.434 -441.343)"/><path class="b" d="M446.981,619.812a1.148,1.148,0,1,0-2.045,1.045l24.637,48.214a1.148,1.148,0,1,0,2.045-1.045Z" transform="translate(-373.87 -447.762)"/><path class="g" d="M85.865,532.834,94.4,571.883l.727-3.363Z" transform="translate(-57.689 -357.988)"/><path class="a" d="M266.825,511.843a1.314,1.314,0,0,0-1.091-1.5L244.028,506.9a1.314,1.314,0,0,0-1.5,1.091l-13.886,87.5a1.314,1.314,0,0,0,1.091,1.5l21.706,3.445a1.314,1.314,0,0,0,1.5-1.091Z" transform="translate(-228.624 -372.309)"/><circle class="d" cx="6.891" cy="6.891" r="6.891" transform="translate(17.361 142.058)"/><path class="b" d="M286.707,598.071a1.148,1.148,0,0,0-2.269-.36l-8.486,53.474a1.149,1.149,0,1,0,2.269.36Z" transform="translate(-260.412 -432.683)"/><path class="b" d="M265.967,594.78a1.149,1.149,0,0,0-2.269-.36l-8.486,53.474a1.148,1.148,0,1,0,2.269.36Z" transform="translate(-246.478 -430.472)"/><path class="f" d="M306.978,480.524l1.195,4.78s4.481,12.547.6,11.95-5.676-11.352-5.676-11.352l-.6-3.884Z" transform="translate(-278.256 -354.601)"/><path class="e" d="M47.3,224.089l-4.183-.335L30.865,258.707l14.041,24.2,9.858-7.469L44.308,258.408,52.374,236.6Z" transform="translate(-20.737 -150.331)"/></g></svg>