<svg height="109.049" viewBox="0 0 174.989 109.049" width="174.989" xmlns="http://www.w3.org/2000/svg"><circle cx="133.028" cy="57.404" fill="#f2f2f2" r="39.621"/><circle cx="21.496" cy="15.131" fill="#ff6584" r="15.131"/><circle cx="48.638" cy="41.649" fill="#f2f2f2" r="39.621"/><ellipse cx="46.766" cy="81.114" fill="#3f3d56" rx="43.521" ry="2.34"/><ellipse cx="38.031" cy="81.195" opacity=".1" rx="32.602" ry="1.614"/><ellipse cx="131.468" cy="97.415" fill="#3f3d56" rx="43.521" ry="2.574"/><ellipse cx="122.733" cy="97.504" opacity=".1" rx="32.602" ry="1.775"/><ellipse cx="62.537" cy="91.409" fill="#3f3d56" rx="27.773" ry="1.404"/><ellipse cx="13.4" cy="86.729" fill="#3f3d56" rx="13.4" ry=".677"/><ellipse cx="148.645" cy="107.788" fill="#3f3d56" rx="24.939" ry="1.261"/><path d="m96.059 67.543h49.916v29.638h-49.916z" fill="#3f3d56"/><circle cx="112.125" cy="82.674" fill="#6c63ff" r="11.231"/><path d="m126.788 72.223h3.744v3.744h-3.744z" fill="#6c63ff"/><path d="m131.468 72.223h3.744v3.744h-3.744z" fill="#6c63ff" opacity=".5"/><path d="m136.148 72.223h3.744v3.744h-3.744z" fill="#6c63ff" opacity=".2"/><path d="m126.788 76.902h3.744v3.744h-3.744z" fill="#2f2e41"/><path d="m131.468 76.902h3.744v3.744h-3.744z" fill="#2f2e41" opacity=".5"/><path d="m136.148 76.902h3.744v3.744h-3.744z" fill="#2f2e41" opacity=".2"/><path d="m126.788 81.582h3.744v3.744h-3.744z" fill="#ff6584"/><path d="m131.468 81.582h3.744v3.744h-3.744z" fill="#ff6584" opacity=".5"/><path d="m136.148 81.582h3.744v3.744h-3.744z" fill="#ff6584" opacity=".2"/><path d="m757.9 558.459v22.462a11.235 11.235 0 1 0 0-22.462z" fill="#3f3d56" opacity=".5" transform="translate(-645.778 -487.016)"/><path d="m993.485 546.959s6.552 2.964 4.212 6.4-9.359 9.983-9.515 11.387a6.233 6.233 0 0 1 -1.092 2.652s-3.12-3.276-2.808-3.588 3.432-3.276 3.588-4.056 4.836-6.863 4.836-6.863l-4.212-3.744z" fill="#ffb9b9" transform="translate(-836.825 -477.31)"/><path d="m993.485 546.959s6.552 2.964 4.212 6.4-9.359 9.983-9.515 11.387a6.233 6.233 0 0 1 -1.092 2.652s-3.12-3.276-2.808-3.588 3.432-3.276 3.588-4.056 4.836-6.863 4.836-6.863l-4.212-3.744z" opacity=".1" transform="translate(-836.825 -477.31)"/><path d="m990.4 576.3s4.524 1.872 4.212 4.836 5.46 11.387 5.46 11.387a9.032 9.032 0 0 1 .468 2.652c-.156.624 4.056.468 4.056.468v-1.4s-3.276-5.616-3.588-7.175-2.184-7.643-2.184-7.643-.624-5.46-3.744-5.46a5.85 5.85 0 0 0 -4.68 2.34z" fill="#ffb9b9" transform="translate(-842.01 -500.098)"/><path d="m976.392 498.459s9.359 7.643 9.047 8.267-4.836 2.964-5.616 3.12-6.3-11.387-6.3-11.387z" fill="#2f2e41" transform="translate(-827.765 -436.376)"/><path d="m976.392 498.459s9.359 7.643 9.047 8.267-4.836 2.964-5.616 3.12-6.3-11.387-6.3-11.387z" opacity=".1" transform="translate(-827.765 -436.376)"/><path d="m925.973 499.081s-.936 4.212 1.56 5.928 6.708 8.423 7.176 8.423 7.175-3.588 6.863-4.212-3.744-6.084-3.744-6.084l-1.092-5.772s-9.515-.31-10.763 1.717z" fill="#2f2e41" transform="translate(-787.485 -435.438)"/><path d="m991.9 420.459 1.4 9.047 2.5 6.4s3.744 3.9 1.56 4.212-3.432-4.212-3.432-4.212l-2.028-3.744z" fill="#ffb9b9" transform="translate(-843.276 -370.543)"/><path d="m991.9 420.459 1.4 9.047 2.5 6.4s3.744 3.9 1.56 4.212-3.432-4.212-3.432-4.212l-2.028-3.744z" opacity=".1" transform="translate(-843.276 -370.543)"/><path d="m951.714 355.959s0 3.276-1.092 3.588 4.368 4.524 4.368 4.524-.624-5.46 1.56-6.863z" fill="#ffb9b9" transform="translate(-808.313 -316.104)"/><path d="m951.714 355.959s0 3.276-1.092 3.588 4.368 4.524 4.368 4.524-.624-5.46 1.56-6.863z" opacity=".1" transform="translate(-808.313 -316.104)"/><circle cx="145.897" cy="38.919" fill="#ffb9b9" r="3.588"/><path d="m928.45 376.835s-3.276-4.056-3.744-3.9-3.9 3.588-4.212 4.68-.936 8.891-.468 10.451a20.624 20.624 0 0 1 .312 5.928c-.156.312-1.092 1.092-.156 1.092s4.212-2.34 6.4-1.872 5.148-.156 5.3-.468-.156-8.423 0-9.047a20.8 20.8 0 0 0 -.468-4.368c-.156-.624-.156-3.12-1.716-3.744l-.665-.066-.033 1.543z" fill="#6c63ff" transform="translate(-782.397 -330.428)"/><path d="m931.4 449.959s.312 4.836 2.652 6.863 7.331 5.46 7.643 6.084 3.276 3.9 3.9 2.5a2.334 2.334 0 0 0 .125-1.383 3.44 3.44 0 0 0 -1.545-2.248l-1.388-.892-6.864-7.175-.312-3.744z" fill="#ffb9b9" transform="translate(-792.214 -395.441)"/><path d="m974.876 651.093s-1.794-.39-2.418.7.624 4.056.624 4.056 3.588 7.487 4.212 6.552-.468-4.368-.468-4.368 1.56-3.432.936-3.588-2.886-1.48-2.886-3.352z" fill="#2f2e41" transform="translate(-826.717 -565.143)"/><path d="m1050.668 702.207s-.936-.468-1.092 0-1.092 2.808 0 3.12 11.855.624 11.543 0-2.028-1.4-3.12-1.716-3.9-2.652-3.9-2.652-1.559 2.028-3.431 1.248z" fill="#2f2e41" transform="translate(-891.513 -607.288)"/><path d="m950.49 311.242a.961.961 0 0 0 -.417-.544 2.206 2.206 0 0 0 -.088-.718c-.229-.678-.772-.639-1.285-.938-.222-.13-.208-.245-.324-.458a1.7 1.7 0 0 0 -.656-.669 2.359 2.359 0 0 0 -1.065-.452c-.817-.056-1.444.713-2.225.96-.344.109-.714.113-1.06.216a.976.976 0 0 0 -.743.706c-.024.165.018.334-.006.5-.048.328-.336.557-.528.827a2.038 2.038 0 0 0 -.036 2.087 2.938 2.938 0 0 0 .245.384 2.363 2.363 0 0 0 .259.878 4.373 4.373 0 0 0 1.538 1.536 3.626 3.626 0 0 1 -.091-.655.452.452 0 0 1 .028-.217c.068-.142.248-.18.386-.258a.975.975 0 0 0 .4-.846c.008-.327-.061-.655-.027-.98a.536.536 0 0 1 .183-.394.633.633 0 0 1 .346-.082 3.9 3.9 0 0 0 1.706-.31 2.522 2.522 0 0 1 .531-.269 1.129 1.129 0 0 1 1.135.567c.252.375.377.821.609 1.208a1.227 1.227 0 0 0 1.083.686.18.18 0 0 0 .134-.06.2.2 0 0 0 .025-.114l.025-1.717a2.594 2.594 0 0 0 -.082-.874z" fill="#2f2e41" transform="translate(-800.979 -275.17)"/><path d="m926.6 398.959s3.432 1.56 3.276 4.836.936 3.588-1.716 3.9-3.276 0-3.432.312-1.092-7.175-.468-7.955a4.773 4.773 0 0 1 2.34-1.093z" fill="#6c63ff" transform="translate(-786.002 -352.396)"/><circle cx="71.569" cy="15.131" fill="#2f2e41" r="4.992"/><path d="m496.72 547.959-2.808 7.643s-2.34 1.872-.936 2.5 4.212-.624 4.212-.624l2.184-5.616-.312-3.9z" fill="#2f2e41" transform="translate(-421.797 -478.154)"/><path d="m496.72 547.959-2.808 7.643s-2.34 1.872-.936 2.5 4.212-.624 4.212-.624l2.184-5.616-.312-3.9z" opacity=".1" transform="translate(-421.797 -478.154)"/><path d="m515.172 257.459 2.34.312s1.092 8.579.624 9.2-2.808 3.12-3.744 2.5.78-12.012.78-12.012z" fill="#575a89" transform="translate(-440.015 -232.969)"/><path d="m351.051 357.959s-3.276 1.4-3.9 1.56-1.56 1.716-.468 2.028 5.3-2.808 5.3-2.808z" fill="#a0616a" transform="translate(-298.279 -317.792)"/><path d="m526.4 562.262 1.716 6.4s.156 2.34.936 2.5 3.12-.78 3.12-1.092a29.446 29.446 0 0 0 -.936-2.808 4.037 4.037 0 0 0 -.936-2.652c-.936-.78-1.779-3.393-1.779-3.393z" fill="#2f2e41" transform="translate(-450.389 -489.338)"/><path d="m504.111 395.466c.315.735.276 6.065-.069 9.612-.167 1.724-.406 3.026-.711 3.179l-2.231-.557-.884-.221-.023-1.94-.133-10.695-2.66-11.077v-2.808l6.708.624 1.064 1.671.028.045s-1.557 11.075-1.089 12.167z" fill="#2f2e41" transform="translate(-425.913 -337.204)"/><path d="m502.707 398.9a35.436 35.436 0 0 1 1.335 6.18c-.167 1.724-.406 3.026-.711 3.179l-2.231-.559c-.034-.072-.069-.147-.1-.221-.286-.6-.554-1.26-.8-1.94l-.133-10.695-2.667-11.077v-2.808l6.708.624 1.064 1.671-6.211-.423 1.4 6.084 1.716 6.4s.006 2.647.63 3.585z" opacity=".1" transform="translate(-425.913 -337.204)"/><path d="m456.382 329.987s-2.184 4.836.936 11.543a136.344 136.344 0 0 1 5.148 12.791 46.868 46.868 0 0 0 2.652 8.423c1.56 3.276 1.248 3.432 1.248 3.432l2.5-1.4s-1.4-9.671-2.028-10.607-.624-3.588-.624-3.588l-1.716-6.4-1.4-6.084 6.863.468s0-8.891-3.12-10.607z" fill="#2f2e41" transform="translate(-390.663 -292.472)"/><path d="m457.287 212.459s0 2.5-.78 2.652-2.34.156-2.808.936 3.588 11.075 3.588 11.075l4.212-2.652 1.4-7.019s-2.028-1.248-2.028-1.872v-2.808z" fill="#a0616a" transform="translate(-388.995 -194.988)"/><path d="m457.287 212.459s0 2.5-.78 2.652-2.34.156-2.808.936 3.588 11.075 3.588 11.075l4.212-2.652 1.4-7.019s-2.028-1.248-2.028-1.872v-2.808z" opacity=".1" transform="translate(-388.995 -194.988)"/><circle cx="70.711" cy="16.457" fill="#a0616a" r="3.744"/><path d="m436.014 238.35s-1.4-8.891-1.716-8.891-4.68.936-4.992 1.092a11.38 11.38 0 0 0 -1.4 1.56l2.184 6.24s.936 4.368 1.56 5.148 1.872 2.964 1.248 3.276-1.248.78-.624.78 5.772-.936 6.084-.468 5.46-1.716 5.46-1.872-.624-7.487-.624-7.487l1.56-3.588-4.68-3.276z" fill="#575a89" transform="translate(-367.254 -209.337)"/><path d="m383.886 241.459-1.56.78s-4.368 9.983-4.68 10.139a16.79 16.79 0 0 0 -2.028 3.744c-.156.624-.468 2.652-.936 2.964a8.1 8.1 0 0 1 -.78.468s.936 1.56 1.4 1.56 2.028-2.184 2.028-2.184 3.432 2.184 4.368.468 3.276-12.635 3.276-12.635z" fill="#575a89" transform="translate(-321.677 -219.465)"/><path d="m495.826 246.363s-2.184-5.3-3.432-4.68.936 4.368 2.34 4.992z" fill="#a0616a" transform="translate(-421.372 -219.611)"/><path d="m495.282 270.282 2.189-.495.463 2.367s2.028 3.588 1.56 5.148-3.276 4.056-4.212 2.652-1.716-3.588-1.092-4.836 1.56-4.212 1.092-4.836z" opacity=".1" transform="translate(-423.011 -243.374)"/><path d="m498.282 268.282 2.189-.495.463 2.367s2.028 3.588 1.56 5.148-3.276 4.056-4.212 2.652-1.716-3.588-1.092-4.836 1.56-4.212 1.092-4.836z" fill="#575a89" transform="translate(-425.543 -241.686)"/><ellipse cx="1.794" cy="3.744" fill="#2f2e41" rx="1.794" ry="3.744" transform="matrix(.42421523 -.9055614 .9055614 .42421523 67.573 14.153)"/><circle cx="74.532" cy="10.919" fill="#2f2e41" r="2.184"/><path d="m501.353 153.643a2.184 2.184 0 0 1 1.95-2.171 2.184 2.184 0 1 0 0 4.342 2.184 2.184 0 0 1 -1.95-2.171z" fill="#2f2e41" transform="translate(-428.848 -143.504)"/><path d="m10.109 43.209h54.596v37.905h-54.596z" fill="#3f3d56"/><path d="m14.477 46.953h7.175v7.175h-7.175z" fill="#f2f2f2"/><path d="m14.477 58.652h7.175v7.175h-7.175z" fill="#6c63ff"/><g fill="#f2f2f2"><path d="m14.477 70.351h7.175v7.175h-7.175z"/><path d="m25.084 49.214h34.162v.624h-34.162z"/><path d="m25.084 51.242h10.607v.624h-10.607z"/><path d="m25.084 60.914h34.162v.624h-34.162z"/><path d="m25.084 62.941h10.607v.624h-10.607z"/><path d="m25.084 72.613h34.162v.624h-34.162z"/><path d="m25.084 74.641h10.607v.624h-10.607z"/></g><path d="m983.276 730.356c0 3.175-1.887 4.284-4.216 4.284h-.161c-.108 0-.215-.007-.321-.015-2.1-.149-3.734-1.314-3.734-4.267 0-3.055 3.9-6.911 4.2-7.2l.017-.017s4.215 4.04 4.215 7.215z" fill="#6c63ff" transform="translate(-828.878 -626.01)"/><path d="m991.721 734.155 1.542-2.155-1.546 2.391v.247c-.108 0-.215-.007-.321-.015l.166-3.177v-.025l.016-.3-1.55-2.4 1.555 2.172v.064l.125-2.4-1.327-2.477 1.343 2.056.131-4.976-.022 3.924 1.321-1.556-1.326 1.894-.035 2.149 1.234-2.062-1.239 2.379-.019 1.195 1.79-2.871-1.8 3.287z" fill="#3f3d56" transform="translate(-841.692 -626.01)"/><path d="m106.279 591.356c0 3.175-1.887 4.284-4.216 4.284h-.161c-.108 0-.215-.007-.321-.015-2.1-.149-3.734-1.314-3.734-4.267 0-3.055 3.9-6.911 4.2-7.2l.017-.017s4.215 4.04 4.215 7.215z" fill="#6c63ff" transform="translate(-88.682 -508.693)"/><path d="m114.721 595.154 1.542-2.154-1.546 2.391v.247c-.108 0-.215-.007-.321-.015l.166-3.177v-.025l.016-.3-1.55-2.4 1.555 2.172v.064l.125-2.4-1.327-2.477 1.343 2.056.131-4.976-.022 3.924 1.321-1.556-1.326 1.894-.035 2.149 1.234-2.062-1.239 2.379-.019 1.195 1.79-2.871-1.8 3.287z" fill="#3f3d56" transform="translate(-101.494 -508.693)"/></svg>