<svg height="128.976" viewBox="0 0 159.984 128.976" width="159.984" xmlns="http://www.w3.org/2000/svg" xmlns:xlink="http://www.w3.org/1999/xlink"><linearGradient id="a" gradientUnits="objectBoundingBox" x1=".5" x2=".5" y1="1"><stop offset="0" stop-color="#808080" stop-opacity=".251"/><stop offset=".54" stop-color="#808080" stop-opacity=".122"/><stop offset="1" stop-color="#808080" stop-opacity=".102"/></linearGradient><linearGradient id="b" x1=".5" x2=".5" xlink:href="#a" y1="1" y2="0"/><linearGradient id="c" x1="170.49" x2="170.49" xlink:href="#a" y1=".999" y2="-.002"/><linearGradient id="d" gradientUnits="objectBoundingBox" x1="4.134" x2="4.134" y1="3.41" y2="2.409"><stop offset="0" stop-opacity=".122"/><stop offset=".55" stop-opacity=".09"/><stop offset="1" stop-opacity=".02"/></linearGradient><g opacity=".96" transform="translate(.04)"><g fill="#f2f2f2"><rect height="3.93" rx="1.965" width="36.392" x="115.261" y="4.513"/><rect height="3.93" rx="1.965" width="36.392" x="123.412" y="7.861"/><rect height="3.93" rx="1.965" width="36.392" x="109.582" y="10.773"/><rect height="3.93" rx="1.965" width="36.392" x="52.956" y="49.495"/><rect height="3.93" rx="1.965" width="36.392" x="61.107" y="52.843"/><rect height="3.93" rx="1.965" width="36.392" x="47.277" y="55.753"/></g><path d="m312.925 657.595c-.873 0-20.963 8.735-44.254-14.266-12.648-12.489-25.038-13.819-33.72-12.426a26.112 26.112 0 0 0 -14.067 7.235c-3.1 3.047-10.615 7.2-28.215 6.066-27.076-1.747-34.209 17.615-34.209 17.615h159.984s-4.651-4.224-5.519-4.224z" fill="url(#a)" opacity=".5" transform="translate(-158.5 -533.277)"/><path d="m158.5 664.226s7.133-19.361 34.209-17.615c17.6 1.14 25.114-3.018 28.208-6.064a26.016 26.016 0 0 1 14.052-7.235c8.682-1.393 21.073-.063 33.72 12.426 23.291 23 43.38 14.266 44.254 14.266s5.531 4.221 5.531 4.221z" fill="#f2f2f2" transform="translate(-158.533 -535.25)"/><path d="m158.5 664.226s7.133-19.361 34.209-17.615c17.6 1.14 25.114-3.018 28.208-6.064a26.016 26.016 0 0 1 14.052-7.235c8.682-1.393 21.073-.063 33.72 12.426 23.291 23 43.38 14.266 44.254 14.266s5.531 4.221 5.531 4.221z" opacity=".02" transform="translate(-158.533 -535.25)"/><rect fill="#f2f2f2" height="3.93" rx="1.965" width="36.392" x="16.562" y="22.418"/><rect fill="#f2f2f2" height="3.93" rx="1.965" width="36.392" x="24.715" y="25.766"/><rect fill="#f2f2f2" height="3.93" rx="1.965" width="36.392" x="10.885" y="28.677"/><circle cx="14.703" cy="14.703" fill="url(#b)" opacity=".5" r="14.703" transform="translate(21.367)"/><circle cx="36.069" cy="14.703" fill="#fccc63" r="13.101"/><path d="m29.134 107.011h11.396v8.467h-11.396z" fill="#6c63ff"/><path d="m313.341 653.359 6.368-6.369a.5.5 0 0 1 .7 0l6.318 6.318a.5.5 0 0 1 -.35.848l-12.683.051a.5.5 0 0 1 -.357-.848z" fill="#6c63ff" transform="translate(-285.199 -546.692)"/><path d="m313.341 653.359 6.368-6.369a.5.5 0 0 1 .7 0l6.318 6.318a.5.5 0 0 1 -.35.848l-12.683.051a.5.5 0 0 1 -.357-.848z" opacity=".05" transform="translate(-285.199 -546.692)"/><path d="m185.806 616.28h.228a1.286 1.286 0 0 1 1.286 1.286v2.534h-2.8v-2.537a1.286 1.286 0 0 1 1.286-1.283z" fill="#fff" transform="translate(-151.121 -504.621)"/><circle cx="34.863" cy="101.855" fill="#fff" r=".701"/><path d="m30.025 108.093h2.674v2.036h-2.674z" fill="#fff"/><path d="m31.234 108.093h.255v2.036h-.255z" fill="#6c63ff"/><path d="m37.155 108.093h2.674v2.036h-2.674z" fill="#fff"/><path d="m38.365 108.093h.255v2.036h-.255z" fill="#6c63ff"/><path d="m610.2 639.865h.022a.025.025 0 0 0 .016-.022.059.059 0 0 0 0-.022v-.021c-.018-.043-.06-.1-.083-.152l-.011-.027a.2.2 0 0 1 0-.036v-.016l.391-1.285.009-.031a1.2 1.2 0 0 1 .627.641 1 1 0 0 1 .011.643l-.009.022h.009v.236h.543c.038-.018-.013-.065-.063-.112l-.013-.013-.033-.034a.168.168 0 0 1 -.023-.034l-.009-.022v-.013h-.016v-.02a1.85 1.85 0 0 0 -.554-1.75 1.9 1.9 0 0 0 0-1.2 2.422 2.422 0 0 0 1.031-1.674 1.283 1.283 0 0 0 0-.149s.085-.071 0-.2v-.011h-.069a.269.269 0 0 0 -.111.036s-.056.181 0 .228h-.014s-.585 1.268-.977 1.449l-.027-.016v-.165a.216.216 0 0 0 0-.022c0-.007 0-.013 0-.02a.442.442 0 0 0 .118-.089.425.425 0 0 0 .036-.043l.015-.022.015-.025.011-.024a.439.439 0 0 0 .02-.052v-.022-.027-.022-.027a.439.439 0 0 0 -.027-.152.063.063 0 0 0 -.016-.04l-.009-.02-.013-.022a.146.146 0 0 1 .034-.031.205.205 0 0 1 .081-.025h.085a.125.125 0 0 0 .029-.016.132.132 0 0 1 .047-.025h-.227l-.029-.013a.157.157 0 0 0 .047.011h.073l.011-.009v-.014h-.033a.275.275 0 0 1 -.074 0h-.076l-.022-.009a.12.12 0 1 0 .082-.225l.02-.013a.106.106 0 0 0 .036-.071.08.08 0 0 0 0-.034l-.013.011h-.011a.181.181 0 0 1 -.118.033h-.014a.547.547 0 0 1 -.107-.04l-.031-.011h-.165a.552.552 0 0 0 -.362.152.54.54 0 0 0 -.062.072.71.71 0 0 1 .071-.386h-.044l-.016.031a.361.361 0 0 1 .049-.123h-.011a.147.147 0 0 0 0-.2c-.085-.129-.243-.029-.243-.029a.66.66 0 0 0 -.025.129l-.025-.011a2.46 2.46 0 0 0 .181 1.939v.045 1.21l-.362 1.66-.071.313.509.083zm.091-3.923a.441.441 0 0 0 .094.06.2.2 0 0 0 0 .034v.158l-.031.015c-.024-.078-.044-.169-.065-.266z" fill="url(#c)" opacity=".2" transform="translate(-527.984 -536.557)"/><path d="m621.321 635.606s.094-.08 0-.221-.268-.031-.268-.031-.063.2 0 .252.268 0 .268 0z" fill="#ca7070" transform="translate(-537.256 -537.25)"/><path d="m617.28 666.09h.435a.143.143 0 0 0 .042.112c.058.067.181.149.121.181h-.6z" fill="#00695c" transform="translate(-534.19 -562.45)"/><path d="m619.54 666.2a.143.143 0 0 1 -.042-.112h.031a.144.144 0 0 0 .042.112c.058.067.181.149.121.181h-.031c.055-.03-.061-.112-.121-.181z" fill="#fff" opacity=".2" transform="translate(-536.006 -562.45)"/><path d="m608.392 665.6.413.073a.208.208 0 0 0 .018.143c.045.092.145.212.085.237l-.589-.1z" fill="#00695c" transform="translate(-526.853 -562.049)"/><path d="m609.2 635.865a2.584 2.584 0 0 0 .315 2.283l.227-.181s-.462-1.6-.2-1.98c-.462-.144-.342-.122-.342-.122z" fill="#00695c" transform="translate(-527.459 -537.7)"/><path d="m610.261 635.256s.094-.08 0-.221-.268-.031-.268-.031-.063.2 0 .252.268 0 .268 0z" fill="#ca7070" transform="translate(-528.2 -536.963)"/><path d="m609.115 665.825a.209.209 0 0 1 -.018-.143l-.377-.062.413.069a.209.209 0 0 0 .018.143c.045.092.145.212.085.237h-.025c.04-.043-.053-.155-.096-.244z" fill="#fff" opacity=".2" transform="translate(-527.181 -562.065)"/><rect fill="#ca7070" height=".656" rx=".221" transform="matrix(-1 0 0 -1 82.67 100.188)" width=".442"/><path d="m611.354 639.083s-.457-1.583-.208-1.973h.047c-.259.377.2 1.98.2 1.98l-.227.181-.02-.022z" fill="#fff" opacity=".2" transform="translate(-529.107 -538.721)"/><circle cx="82.439" cy="99.273" fill="#ca7070" r=".489"/><path d="m613.766 640.465v-.214a.217.217 0 0 0 0-.047.489.489 0 0 0 -.2-.924h.027a.489.489 0 0 1 .225.924.225.225 0 0 1 0 .047v.214a.221.221 0 0 1 -.221.221h-.027a.221.221 0 0 0 .196-.221z" fill="#fff" opacity=".2" transform="translate(-531.152 -540.498)"/><path d="m610.95 647.172s.944.107.978 0a2.087 2.087 0 0 0 0-1.343.489.489 0 0 0 -.489-.489.489.489 0 0 0 -.489.489z" fill="#00695c" transform="translate(-529.007 -545.46)"/><path d="m609.026 655.45-.426 1.957h.426l.442-1.449a1.361 1.361 0 0 1 .694.71 1.039 1.039 0 0 1 0 .741h.458v-.022a2.034 2.034 0 0 0 -.62-1.937" fill="#263238" transform="translate(-527.083 -553.738)"/><path d="m613.928 647.18a2.087 2.087 0 0 0 0-1.343.489.489 0 0 0 -.458-.487h.031a.489.489 0 0 1 .489.489 2.088 2.088 0 0 1 0 1.343c-.013.038-.141.049-.3.047.137-.004.238-.016.238-.049z" fill="#fff" opacity=".2" transform="translate(-531.07 -545.468)"/><path d="m614.575 638.944s1.268-.884 1.136-2h-.283s-.679 1.468-1.112 1.611.259.389.259.389z" fill="#00695c" transform="translate(-531.647 -538.582)"/><g fill="#fff" opacity=".2" transform="translate(81.88 101.719)"><path d="m611.1 658.314-.433 1.426h-.067l.442-1.449z" transform="translate(-610.6 -657.783)"/><path d="m616 655.49h.063a2.035 2.035 0 0 1 .62 1.937v.022h-.063v-.022a2.035 2.035 0 0 0 -.62-1.937z" transform="translate(-615.022 -655.49)"/></g><path d="m617.34 637h.047c.127 1.121-1.136 2-1.136 2l-.031-.013c.141-.099 1.237-.938 1.12-1.987z" fill="#fff" opacity=".2" transform="translate(-533.322 -538.631)"/><path d="m611.593 638.575a.81.81 0 0 0 -.056.2.529.529 0 0 1 -.225.344.5.5 0 0 1 -.219.06.419.419 0 0 1 -.324-.1.4.4 0 0 1 -.1-.2.678.678 0 0 1 .181-.623.6.6 0 0 1 .625-.132.6.6 0 0 0 .12.043.2.2 0 0 0 .181-.058.109.109 0 0 1 -.105.141.3.3 0 0 0 .234.013.2.2 0 0 1 -.25.1.667.667 0 0 0 .283.058c-.02 0-.06.038-.085.045a.552.552 0 0 1 -.094 0 .181.181 0 0 0 -.166.109z" fill="#263238" transform="translate(-528.763 -539.521)"/><g fill="#fff" opacity=".2" transform="translate(82.296 98.564)"><path d="m616.036 638.361a.3.3 0 0 0 .116.029.305.305 0 0 1 -.152-.029.111.111 0 0 0 .111-.12l.025-.022a.109.109 0 0 1 -.1.141z" transform="translate(-615.438 -638.194)"/><path d="m614.3 638.16a.6.6 0 0 1 -.12-.043.545.545 0 0 0 -.181-.038.543.543 0 0 1 .219.038.6.6 0 0 0 .12.043h.016a.184.184 0 0 1 -.054 0z" transform="translate(-613.801 -638.078)"/><path d="m616.108 639.713c.025 0 .065-.045.085-.045a.669.669 0 0 1 -.283-.058.181.181 0 0 0 .063.013.669.669 0 0 0 .252.043c-.02 0-.06.038-.085.045a.213.213 0 0 1 -.065 0z" transform="translate(-615.365 -639.333)"/><path d="m612.9 640.923a.5.5 0 0 0 .219-.06.529.529 0 0 0 .225-.344.812.812 0 0 1 .056-.2.181.181 0 0 1 .154-.1h.031a.181.181 0 0 0 -.154.1.812.812 0 0 0 -.056.2.529.529 0 0 1 -.225.344.5.5 0 0 1 -.219.06z" transform="translate(-612.9 -639.832)"/><path d="m616.41 639.174a.2.2 0 0 0 .161-.1l.036-.011a.2.2 0 0 1 -.197.111z" transform="translate(-615.774 -638.882)"/></g><path d="m621.81 635.6s.094-.08 0-.221a.15.15 0 0 0 -.118-.072.154.154 0 0 1 .149.072c.094.141 0 .221 0 .221a.858.858 0 0 1 -.181.02.938.938 0 0 0 .15-.02z" fill="#fff" opacity=".2" transform="translate(-537.777 -537.243)"/><path d="m633.787 627.215a2.584 2.584 0 0 0 .315 2.283l.226-.181s-.462-1.6-.2-1.98c-.458-.144-.341-.122-.341-.122z" fill="#ff5252" transform="translate(-547.594 -530.617)"/><path d="m634.851 626.616s.094-.08 0-.221-.268-.031-.268-.031-.063.2 0 .252.268 0 .268 0z" fill="#f6b9ad" transform="translate(-548.335 -529.888)"/><rect fill="#f6b9ad" height=".656" rx=".221" transform="matrix(-1 0 0 -1 87.125 98.623)" width=".442"/><path d="m635.944 630.473s-.457-1.583-.208-1.973h.047c-.259.377.2 1.98.2 1.98l-.227.181-.02-.022z" fill="#fff" opacity=".2" transform="translate(-549.242 -531.671)"/><circle cx="86.894" cy="97.706" fill="#f6b9ad" r=".489"/><path d="m638.356 631.823v-.212a.225.225 0 0 0 0-.047.489.489 0 0 0 -.2-.924h.027a.489.489 0 0 1 .225.924.217.217 0 0 1 0 .047v.214a.221.221 0 0 1 -.221.221h-.027a.221.221 0 0 0 .192-.223z" fill="#fff" opacity=".2" transform="translate(-551.287 -533.423)"/><path d="m635.54 638.5s.944.107.978 0c.112-.344-.181-.725-.038-.906a.448.448 0 0 0 .038-.442.489.489 0 0 0 -.489-.489.489.489 0 0 0 -.489.489z" fill="#ff5252" transform="translate(-549.142 -538.353)"/><path d="m638.562 637.631a.447.447 0 0 0 .038-.442.489.489 0 0 0 -.489-.489h-.031a.489.489 0 0 1 .458.487.448.448 0 0 1 -.038.442c-.152.181.15.554.038.906-.011.033-.109.045-.237.047.159 0 .288-.009.3-.047.111-.349-.191-.722-.039-.904z" fill="#fff" opacity=".2" transform="translate(-551.222 -538.385)"/><path d="m635.769 646.63a2.8 2.8 0 0 1 .4 1.937v.022h-.294a1.577 1.577 0 0 0 0-.741 1.17 1.17 0 0 0 -.446-.71l-.284 1.449h-.274l.274-1.957z" fill="#f6b9ad" transform="translate(-548.593 -546.516)"/><path d="m647.8 629.6s.114-.047.065-.212-.246-.109-.246-.109-.121.181-.074.241.255.08.255.08z" fill="#f6b9ad" transform="translate(-558.959 -532.301)"/><path d="m638.376 632.3s1.466-.475 1.674-1.584l-.272-.083s-1.087 1.2-1.536 1.214.134.453.134.453z" fill="#ff5252" transform="translate(-551.215 -533.415)"/><path d="m641.234 631.1.045.015c-.208 1.109-1.674 1.583-1.674 1.583l-.025-.02c.172-.062 1.46-.543 1.654-1.578z" fill="#fff" opacity=".2" transform="translate(-552.45 -533.8)"/><g fill="#fff" opacity=".2" transform="translate(86.483 100.114)"><path d="m636.294 649.42-.284 1.449h.063l.275-1.41a.657.657 0 0 0 -.054-.039z" transform="translate(-636.01 -648.914)"/><path d="m639.543 646.63h-.063a2.8 2.8 0 0 1 .4 1.937v.022h.058v-.022a2.8 2.8 0 0 0 -.393-1.937z" transform="translate(-638.851 -646.63)"/></g><path d="m648.14 629.575s.114-.047.065-.212a.15.15 0 0 0 -.091-.1.154.154 0 0 1 .121.112c.049.163-.065.212-.065.212a.852.852 0 0 1 -.181-.034.93.93 0 0 0 .151.022z" fill="#fff" opacity=".2" transform="translate(-559.336 -532.293)"/><path d="m632.854 646.51-.594 1.254a7.359 7.359 0 0 1 1.034.125 1.107 1.107 0 0 0 .971-.181l-.422-1.2z" fill="#263238" transform="translate(-546.456 -546.418)"/><path d="m634.993 657.4s.313.063.25.181h-.563l.031-.181z" fill="#ff5252" transform="translate(-548.438 -555.335)"/><path d="m640.523 657.4s.313.063.25.181h-.563l.031-.181z" fill="#ff5252" transform="translate(-552.966 -555.335)"/><path d="m632.8 630.137s-.752 1.065-.408 1.5l-1.346-.031s.379-2.406 1.754-1.469z" fill="#fccc63" transform="translate(-545.465 -532.833)"/><path d="m632.8 630.154a1.142 1.142 0 0 0 -.525-.214 1.327 1.327 0 0 1 .362.181s-.752 1.065-.408 1.5l-1.185-.027v.027l1.346.031c-.346-.433.41-1.498.41-1.498z" fill="#fff" opacity=".2" transform="translate(-545.457 -532.85)"/><path d="m639.674 646.51h-.094l.42 1.19a.957.957 0 0 1 -.623.217 1 1 0 0 0 .725-.217z" fill="#fff" opacity=".2" transform="translate(-552.286 -546.418)"/><path d="m636.123 657.4h-.063s.313.063.25.181h.063c.064-.119-.25-.181-.25-.181z" fill="#fff" opacity=".2" transform="translate(-549.568 -555.335)"/><path d="m641.653 657.4h-.063s.313.063.25.181h.063c.064-.119-.25-.181-.25-.181z" fill="#fff" opacity=".2" transform="translate(-554.096 -555.335)"/><path d="m717.627 352.243-1.747-9.755 5.531-.27v10.025h3.789l3.785-10.773" fill="none" stroke="#b3b3b3" stroke-miterlimit="10" transform="translate(-586.208 -279.602)"/><rect fill="#6c63ff" height="10.773" rx="5.387" width="15.14" x="127.633" y="71.621"/><path d="m873.693 489.37h-4.366a5.4 5.4 0 0 0 -5.387 5.387 2.993 2.993 0 0 0 .015.362 5.4 5.4 0 0 1 5.372-5.022h4.366a5.4 5.4 0 0 1 5.372 5.022c0-.12.014-.241.014-.362a5.4 5.4 0 0 0 -5.386-5.387z" opacity=".05" transform="translate(-736.16 -417.749)"/><path d="m729.919 407.941-1.43-1.121-3.457 4.379-1.859-1.44-1.163 1.478 2.7 2.065.67.538z" fill="url(#d)" transform="translate(-591.228 -333.112)"/><path d="m730.583 408.373-1.3-.993-3.433 4.479-1.908-1.464-.995 1.3 2.556 1.957.656.491z" fill="#69f0ae" transform="translate(-591.997 -333.57)"/><path d="m833.442 226.665c0 12.44-10.393 22.525-21.457 22.525s-22.405-10.09-22.405-22.525 11.34-22.525 22.407-22.525 21.455 10.085 21.455 22.525z" fill="url(#b)" transform="translate(-675.272 -184.197)"/><path d="m837.041 231.463c0 11.858-9.905 21.47-20.454 21.47s-21.358-9.612-21.358-21.47 10.814-21.463 21.36-21.463 20.452 9.6 20.452 21.463z" fill="#6c63ff" transform="translate(-679.899 -188.996)"/><path d="m133.413 64.691h4.745v1.658h-4.745z" fill="#6c63ff"/><path d="m909.714 209.55c-.252 0-.5 0-.754.018 10.26.444 19.7 9.876 19.7 21.452s-9.44 21.008-19.693 21.452c.252.011.5.018.754.018 10.547 0 20.454-9.612 20.454-21.47s-9.915-21.47-20.461-21.47z" opacity=".2" transform="translate(-773.023 -188.627)"/><path d="m797.814 231.463c0-11.688 10.509-21.2 20.9-21.463h-.451c-10.547 0-21.358 9.612-21.358 21.47s10.809 21.47 21.356 21.47h.451c-10.395-.283-20.898-9.784-20.898-21.477z" fill="#fff" opacity=".2" transform="translate(-681.274 -188.996)"/><path d="m129.195 60.924h13.636v4.444h-13.636z" fill="#6c63ff"/><path d="m839.219 212.564s-16.2 18.513 0 39.813l5.349-.018s-14.765-17.6-.678-41.128l-2.633.6z" fill="#fff" opacity=".2" transform="translate(-710.024 -190.003)"/><path d="m925.328 211.555s16.2 18.8 0 40.1l-5.348-.018s14.764-17.756.678-41.282l2.636.527z" fill="#fff" opacity=".2" transform="translate(-782.046 -189.282)"/></g></svg>