<svg height="475.248" viewBox="0 0 334.947 475.248" width="334.947" xmlns="http://www.w3.org/2000/svg"><g fill="#4ac496"><path d="m4082.029 438.815h4.5a2.909 2.909 0 0 0 0-5.815h-4.5a2.909 2.909 0 0 0 0 5.815z" transform="matrix(.70710678 -.70710678 .70710678 .70710678 -3142.55854782306 2677.43394404186)"/><path d="m4137.213 438.815h5.068a2.909 2.909 0 0 0 0-5.815h-5.068a2.909 2.909 0 0 0 0 5.815z" transform="matrix(.70710678 -.70710678 .70710678 .70710678 -3176.40067831386 2711.27607453266)"/><path d="m4116.908 464.7a2.9 2.9 0 0 0 2.908-2.815v-4.5a2.91 2.91 0 0 0 -5.816 0v4.5a2.9 2.9 0 0 0 2.908 2.815z" transform="matrix(.70710678 -.70710678 .70710678 .70710678 -3176.97272769888 2683.92164874836)"/><path d="m4116.908 408.236a2.9 2.9 0 0 0 2.908-2.815v-5.067a2.91 2.91 0 0 0 -5.816 0v5.067a2.9 2.9 0 0 0 2.908 2.815z" transform="matrix(.70710678 -.70710678 .70710678 .70710678 -3142.22691474324 2718.667461704)"/><path d="m4081.552 437.83h3.74a2.416 2.416 0 0 0 0-4.83h-3.74a2.416 2.416 0 0 0 0 4.83z" transform="translate(-3865.738 -423.986)"/><path d="m4136.736 437.83h4.208a2.416 2.416 0 0 0 0-4.83h-4.208a2.416 2.416 0 0 0 0 4.83z" transform="translate(-3906.894 -423.986)"/><path d="m4116.415 462.98a2.4 2.4 0 0 0 2.415-2.338v-3.742a2.416 2.416 0 0 0 -4.83 0v3.741a2.4 2.4 0 0 0 2.415 2.339z" transform="translate(-3891.682 -440.068)"/><path d="m4116.415 406.423a2.4 2.4 0 0 0 2.415-2.338v-4.208a2.416 2.416 0 0 0 -4.83 0v4.208a2.4 2.4 0 0 0 2.415 2.338z" transform="translate(-3891.682 -397.539)"/><path d="m2.338 4.83h3.74a2.416 2.416 0 0 0 0-4.83h-3.74a2.416 2.416 0 0 0 0 4.83z" transform="matrix(.70710678 -.70710678 .70710678 .70710678 215.105 17.83)"/><path d="m2.338 4.83h4.209a2.416 2.416 0 0 0 0-4.83h-4.209a2.416 2.416 0 0 0 0 4.83z" transform="matrix(.70710678 -.70710678 .70710678 .70710678 225.023 7.911)"/><path d="m2.415 8.417a2.4 2.4 0 0 0 2.415-2.339v-3.74a2.416 2.416 0 0 0 -4.83 0v3.74a2.4 2.4 0 0 0 2.415 2.339z" transform="matrix(.70710678 -.70710678 .70710678 .70710678 225.233 15.453)"/><path d="m2.415 8.884a2.4 2.4 0 0 0 2.415-2.338v-4.208a2.416 2.416 0 0 0 -4.83 0v4.208a2.4 2.4 0 0 0 2.415 2.338z" transform="matrix(.70710678 -.70710678 .70710678 .70710678 214.983 5.203)"/><path d="m4180.088 525.455a5.7 5.7 0 1 0 -5.7-5.7 5.707 5.707 0 0 0 5.7 5.7zm0-7.149a1.448 1.448 0 1 1 -1.448 1.448 1.45 1.45 0 0 1 1.448-1.448z" transform="translate(-3879.955 -443.319)"/></g><path d="m4081.114 436.923h3.039a1.963 1.963 0 0 0 0-3.923h-3.039a1.963 1.963 0 0 0 0 3.923z" fill="#4a69ff" transform="translate(-4079.214 -11.308)"/><path d="m4136.3 436.923h3.419a1.963 1.963 0 0 0 0-3.923h-3.419a1.963 1.963 0 0 0 0 3.923z" fill="#4a69ff" transform="translate(-4123.002 -11.308)"/><path d="m4115.962 461.4a1.953 1.953 0 0 0 1.961-1.9v-3.039a1.963 1.963 0 0 0 -3.923 0v3.039a1.954 1.954 0 0 0 1.962 1.9z" fill="#4a69ff" transform="translate(-4106.817 -28.419)"/><path d="m4115.962 404.756a1.953 1.953 0 0 0 1.961-1.9v-3.419a1.963 1.963 0 0 0 -3.923 0v3.419a1.953 1.953 0 0 0 1.962 1.9z" fill="#4a69ff" transform="translate(-4106.817 16.83)"/><path d="m4184.2 533.681a9.814 9.814 0 1 0 -9.814-9.814 9.825 9.825 0 0 0 9.814 9.814zm0-12.306a2.492 2.492 0 1 1 -2.493 2.493 2.5 2.5 0 0 1 2.493-2.494z" fill="#4a69ff" transform="translate(-3859.068 -58.432)"/></svg>