<svg height="293.375" viewBox="0 0 292.5 293.375" width="292.5" xmlns="http://www.w3.org/2000/svg"><path d="m255.7 677.833-2.576-10.16a131.9 131.9 0 0 0 -14-5.022l-.325 4.722-1.319-5.2c-5.9-1.686-9.912-2.428-9.912-2.428s5.419 20.612 16.789 36.371l13.247 2.327-10.291 1.484a53.38 53.38 0 0 0 4.6 4.878c16.538 15.351 34.959 22.395 41.144 15.731s-2.209-24.509-18.747-39.859a70.288 70.288 0 0 0 -18.01-11.586z" fill="#f2f2f2" transform="translate(-227.576 -430.69)"/><path d="m331.554 631.275 3.047-10.029a131.908 131.908 0 0 0 -9.385-11.534l-2.719 3.874 1.56-5.135c-4.179-4.491-7.23-7.2-7.23-7.2s-6.014 20.447-4.428 39.813l10.137 8.84-9.579-4.049a53.374 53.374 0 0 0 1.419 6.556c6.223 21.69 18.351 37.241 27.089 34.734s10.778-22.123 4.555-43.813a70.277 70.277 0 0 0 -9.434-19.228z" fill="#f2f2f2" transform="translate(-278.927 -395.168)"/><path d="m521.8 145.963h-1.607v-44.022a25.479 25.479 0 0 0 -25.483-25.479h-93.269a25.479 25.479 0 0 0 -25.479 25.479v241.509a25.479 25.479 0 0 0 25.479 25.479h93.269a25.479 25.479 0 0 0 25.479-25.479v-166.15h1.611z" fill="#e6e6e6" transform="translate(-317.691 -76.462)"/><path d="m506.61 93.335h-12.173a9.04 9.04 0 0 1 -8.371 12.454h-53.432a9.04 9.04 0 0 1 -8.37-12.454h-11.371a19.028 19.028 0 0 0 -19.028 19.028v241.158a19.028 19.028 0 0 0 19.028 19.028h93.717a19.028 19.028 0 0 0 19.028-19.028v-241.159a19.028 19.028 0 0 0 -19.027-19.027z" fill="#fff" transform="translate(-328.564 -86.71)"/><path d="m516.389 323.113a9.6 9.6 0 0 1 4.8-8.316 9.6 9.6 0 1 0 0 16.63 9.6 9.6 0 0 1 -4.8-8.314z" fill="#ccc" transform="translate(-397.143 -220.422)"/><path d="m547.126 323.113a9.6 9.6 0 0 1 4.8-8.316 9.6 9.6 0 1 0 0 16.63 9.6 9.6 0 0 1 -4.8-8.314z" fill="#ccc" transform="translate(-415.81 -220.422)"/><circle cx="143.112" cy="102.69" fill="#6c63ff" r="9.601"/><path d="m543.224 321.575h-55.96a2.012 2.012 0 0 1 -2.009-2.009v-55.96a2.012 2.012 0 0 1 2.009-2.009h55.959a2.012 2.012 0 0 1 2.009 2.009v55.959a2.012 2.012 0 0 1 -2.008 2.01zm-55.96-59.175a1.207 1.207 0 0 0 -1.206 1.206v55.959a1.207 1.207 0 0 0 1.206 1.206h55.959a1.207 1.207 0 0 0 1.206-1.206v-55.958a1.207 1.207 0 0 0 -1.206-1.206z" fill="#ccc" transform="translate(-384.065 -188.895)"/><path d="m85.829 175.575h85.825v.804h-85.825z" fill="#ccc"/><circle cx="88.539" cy="167.846" fill="#6c63ff" r="2.71"/><path d="m85.829 202.678h85.825v.804h-85.825z" fill="#ccc"/><g fill="#6c63ff"><circle cx="88.539" cy="194.949" r="2.71"/><path d="m616.012 651h-27.123a1.769 1.769 0 0 1 -1.767-1.767v-9.507a1.769 1.769 0 0 1 1.767-1.767h27.123a1.769 1.769 0 0 1 1.767 1.767v9.506a1.769 1.769 0 0 1 -1.767 1.768z" transform="translate(-445.929 -417.464)"/><circle cx="97.38" cy="167.846" r="2.71"/><circle cx="106.221" cy="167.846" r="2.71"/><circle cx="97.38" cy="194.949" r="2.71"/><circle cx="106.221" cy="194.949" r="2.71"/></g><path d="m531.918 822.059h-281.952c-.6 0-1.092-.214-1.092-.478s.489-.479 1.092-.479h281.952c.6 0 1.093.214 1.093.479s-.49.478-1.093.478z" fill="#3f3d56" transform="translate(-240.51 -528.684)"/><path d="m783.493 547.533a3.967 3.967 0 0 1 .554.309l17.613-7.518.629-4.64 7.038-.043-.416 10.641-23.248 6.148a4.172 4.172 0 0 1 -.176.474 4.019 4.019 0 1 1 -1.995-5.373z" fill="#ffb8b8" transform="translate(-561.745 -355.324)"/><path d="m625.993 706.3h-4.815l-2.29-18.57h7.106z" fill="#ffb8b8" transform="translate(-375.852 -417.663)"/><path d="m606.922 731.518h9.285v5.846h-15.131a5.846 5.846 0 0 1 5.846-5.846z" fill="#2f2e41" transform="translate(-365.035 -444.253)"/><path d="m670.909 702.977-4.791.472-4.1-18.256 7.071-.7z" fill="#ffb8b8" transform="translate(-402.045 -415.697)"/><path d="m5.846 0h9.285v5.846h-15.131a5.846 5.846 0 0 1 5.846-5.846z" fill="#2f2e41" transform="matrix(.99518473 -.09801714 .09801714 .99518473 254.696 287.293)"/><circle cx="251.481" cy="151.021" fill="#ffb8b8" r="9.645"/><path d="m830.114 696.948a1.755 1.755 0 0 1 -1.734-1.452c-2.492-13.833-10.637-59.064-10.832-60.317a.547.547 0 0 1 -.006-.087v-3.372a.585.585 0 0 1 .11-.342l1.076-1.507a.581.581 0 0 1 .449-.245c6.135-.288 26.226-1.13 27.2.082.975 1.219.63 4.911.551 5.639v.076l9.026 57.725a1.772 1.772 0 0 1 -1.459 2.016l-5.638.929a1.776 1.776 0 0 1 -1.974-1.215c-1.744-5.572-7.59-24.315-9.617-31.568a.2.2 0 0 0 -.385.054c.1 6.914.346 24.553.43 30.645l.009.656a1.774 1.774 0 0 1 -1.607 1.781l-5.436.494c-.054.006-.109.008-.163.008z" fill="#2f2e41" transform="translate(-585.863 -412.064)"/><path d="m831.722 493.866a8.064 8.064 0 0 0 -3.268 4.71 44.644 44.644 0 0 0 -1.918 10.665l-.611 10.839-7.562 28.734c6.554 5.545 10.334 4.285 19.156-.251s9.83 1.512 9.83 1.512l1.764-24.449 2.52-26.716a11.847 11.847 0 0 0 -1.909-1.836 19.5 19.5 0 0 0 -16.667-3.532z" fill="#6c63ff" transform="translate(-586.362 -329.408)"/><path d="m837.549 559.579a4.131 4.131 0 0 1 .589.276l17.415-8.717.289-4.722 7.184-.5.385 10.765-23.274 7.7a4.122 4.122 0 1 1 -2.589-4.8z" fill="#ffb8b8" transform="translate(-594.646 -361.566)"/><path d="m888.521 507.607c4.285 1.512 5.04 17.9 5.04 17.9-5.041-2.773-11.09 1.764-11.09 1.764s-1.26-4.285-2.773-9.83a9.633 9.633 0 0 1 2.016-9.074s2.521-2.273 6.807-.76z" fill="#6c63ff" transform="translate(-623.375 -337.982)"/><path d="m861.706 442.766c-1.2-.961-2.841.786-2.841.786l-.965-8.652s-6.009.72-9.854-.24-4.446 3.485-4.446 3.485a30.858 30.858 0 0 1 -.12-5.408c.24-2.163 3.365-4.326 8.893-5.768s8.412 4.807 8.412 4.807c3.848 1.924 2.123 11.951.921 10.99z" fill="#2f2e41" transform="translate(-601.578 -289.195)"/></svg>