<svg height="231.813" viewBox="0 0 243.729 231.813" width="243.729" xmlns="http://www.w3.org/2000/svg"><g fill="#e6e6e6"><path d="m878.452 158.754v-17.864a41.1 41.1 0 0 1 -26.533-19.751 7.806 7.806 0 0 1 -4.666 1.536h-14.186a58.59 58.59 0 0 0 45.385 36.079z" transform="translate(-634.724 -113.146)"/><path d="m918.636 123.5v-17.161a9.556 9.556 0 0 0 -9.559-9.559h-13.772v1.657a7.848 7.848 0 0 1 -2.428 5.686 40.131 40.131 0 0 0 25.759 19.377z" transform="translate(-674.907 -96.78)"/><path d="m689.186 106.309h-8.87a7.871 7.871 0 0 1 -7.869-7.872v-1.657h-12.922a9.558 9.558 0 0 0 -9.559 9.56v212.7a9.542 9.542 0 0 0 9.559 9.552h86.351a9.3 9.3 0 0 0 1.178-.072 9.564 9.564 0 0 0 8.381-9.48v-156.58a78.6 78.6 0 0 1 -66.249-56.151z" transform="translate(-511.706 -96.78)"/><path d="m791.4 125.82h-18.75a77.6 77.6 0 0 0 65.211 55.15v-18.054a59.613 59.613 0 0 1 -46.461-37.1z" transform="translate(-594.13 -116.291)"/></g><path d="m672.642 338.591a1.314 1.314 0 0 0 -1.313 1.313v21.978a1.314 1.314 0 0 0 1.313 1.313h88.6a1.314 1.314 0 0 0 1.313-1.313v-21.982a1.314 1.314 0 0 0 -1.313-1.313z" fill="#fff" transform="translate(-526.059 -259.242)"/><circle cx="158.068" cy="91.65" fill="#3f3d56" r="6.891"/><path d="m756.477 362.079a1.148 1.148 0 0 0 0 2.3h54.143a1.148 1.148 0 0 0 0-2.3z" fill="#e6e6e6" transform="translate(-582.495 -275.023)"/><path d="m756.477 383.079a1.148 1.148 0 0 0 0 2.3h54.143a1.148 1.148 0 0 0 0-2.3z" fill="#e6e6e6" transform="translate(-582.495 -289.132)"/><path d="m672.642 453.591a1.314 1.314 0 0 0 -1.313 1.313v21.978a1.314 1.314 0 0 0 1.313 1.313h88.6a1.314 1.314 0 0 0 1.313-1.313v-21.982a1.314 1.314 0 0 0 -1.313-1.313z" fill="#fff" transform="translate(-526.059 -336.506)"/><circle cx="158.068" cy="129.386" fill="#3f3d56" r="6.891"/><path d="m756.477 477.079a1.148 1.148 0 1 0 0 2.3h54.143a1.148 1.148 0 1 0 0-2.3z" fill="#e6e6e6" transform="translate(-582.495 -352.287)"/><path d="m756.477 498.079a1.148 1.148 0 1 0 0 2.3h54.143a1.148 1.148 0 1 0 0-2.3z" fill="#e6e6e6" transform="translate(-582.495 -366.396)"/><path d="m672.642 568.591a1.314 1.314 0 0 0 -1.313 1.313v21.978a1.314 1.314 0 0 0 1.313 1.313h88.6a1.314 1.314 0 0 0 1.313-1.313v-21.982a1.314 1.314 0 0 0 -1.313-1.313z" fill="#fff" transform="translate(-526.059 -413.77)"/><circle cx="158.068" cy="167.123" fill="#3f3d56" r="6.891"/><path d="m756.477 592.079a1.149 1.149 0 0 0 0 2.3h54.143a1.148 1.148 0 0 0 0-2.3z" fill="#e6e6e6" transform="translate(-582.495 -429.55)"/><path d="m756.477 613.079a1.149 1.149 0 0 0 0 2.3h54.143a1.148 1.148 0 1 0 0-2.3z" fill="#e6e6e6" transform="translate(-582.495 -443.659)"/><circle cx="190.882" cy="207.484" fill="#6c63ff" r="16.407"/><path d="m571.394 614.159h-8.86v-8.859h-1.969v8.86h-8.86v1.969h8.86v8.86h1.969v-8.86h8.86z" fill="#fff" transform="translate(-370.667 -406.675)"/><path d="m309.861 744.732.524 3.86s13.34 4.56 10.733 6.648-23.684 2.187-24.123 1-.537-6.332.652-6.771 3.387-4.854 3.387-4.854z" fill="#2f2e41" transform="translate(-274.356 -532.032)"/><path d="m98.449 406.744-8.365 51.981-3.884 30.775-12.547-.6 4.182-51.085 10.755-28.978z" fill="#2f2e41" transform="translate(-49.485 -273.274)"/><path d="m395.978 503.524 1.195 4.78s4.481 12.547.6 11.95-5.676-11.352-5.676-11.352l-.6-3.884z" fill="#ffb6b6" transform="translate(-338.051 -370.054)"/><path d="m286.8 470.537 9.261 40.928 11.352 48.1 10.755-3.884-7.768-38.839s1.195-8.365 0-12.547-1.195-22.406-1.195-22.406l8.962-7.767v-14.929l-23.6-2.1z" fill="#2f2e41" transform="translate(-267.711 -338.86)"/><path d="m355.753 754.608.577 3.852s13.4 4.377 10.823 6.5-23.652 2.511-24.107 1.328-.623-6.324.56-6.779 3.32-4.9 3.32-4.9z" fill="#2f2e41" transform="translate(-305.269 -538.747)"/><circle cx="55.387" cy="64.013" fill="#ffb6b6" r="8.962"/><path d="m129.786 191.435-10.157 5.377 3.884 12.547h4.187l2.39-2.987-.9-1.792 7.17-5.378z" fill="#ffb6b6" transform="translate(-80.374 -128.617)"/><path d="m100.5 216.311-.149-4.929-4.08-7.822-15.338 6.328 5.377 48.695 18.522 1.195-.6-20.613 2.987-22.406-1.045-6.423z" fill="#6c63ff" transform="translate(-54.378 -136.763)"/><path d="m311.4 338.485-7.194-35.92s-16.407 3.357-17.9 5.747-3.585 50.786-3.585 50.786-2.987 9.56 0 9.56 14.937-8.663 15.534-5.377 1.195 5.079 5.377 4.182 6.868-8.063 6.868-8.063-.9 14.34.9 14.34 4.481.9 4.481-.6v-31.966l7.17-25.99-7.094-6.516-3.067 2.332z" fill="#2f2e41" transform="translate(-264.075 -235.038)"/><path d="m388.965 342.071 2.091-.6s.6 4.182.6 5.079-1.792 18.522-1.792 18.522l1.494 30.173-6.871 2.987-2.091-34.056z" fill="#2f2e41" transform="translate(-331.935 -261.179)"/><path d="m368.478 266.951s-3.585-10.157 4.481-12.547 11.651.3 12.846 1.792c1.252 1.565 7.17 9.261 3.585 11.053s-5.228-.448-5.228-1.344-5.377 0-7.767.9a3.579 3.579 0 0 1 -3.878-.747s-.6-2.838-2.4-1.344-1.639 2.237-1.639 2.237z" fill="#2f2e41" transform="translate(-322.052 -202.042)"/><path d="m407.9 525.032a1.314 1.314 0 0 0 -1.766-.572l-19.57 10a1.314 1.314 0 0 0 -.572 1.766l40.308 78.896a1.314 1.314 0 0 0 1.766.571l19.57-10a1.314 1.314 0 0 0 .572-1.766z" fill="#e6e6e6" transform="translate(-334.254 -384.024)"/><circle cx="67.915" cy="156.833" fill="#6c63ff" r="6.891"/><path d="m465.681 610.257a1.148 1.148 0 0 0 -2.045 1.045l24.637 48.213a1.148 1.148 0 0 0 2.045-1.045z" fill="#fff" transform="translate(-386.434 -441.343)"/><path d="m446.981 619.812a1.148 1.148 0 1 0 -2.045 1.045l24.637 48.214a1.148 1.148 0 1 0 2.045-1.045z" fill="#fff" transform="translate(-373.87 -447.762)"/><path d="m85.865 532.834 8.535 39.049.727-3.363z" opacity=".2" transform="translate(-57.689 -357.988)"/><path d="m266.825 511.843a1.314 1.314 0 0 0 -1.091-1.5l-21.706-3.443a1.314 1.314 0 0 0 -1.5 1.091l-13.886 87.5a1.314 1.314 0 0 0 1.091 1.5l21.706 3.445a1.314 1.314 0 0 0 1.5-1.091z" fill="#e6e6e6" transform="translate(-228.624 -372.309)"/><circle cx="24.252" cy="148.949" fill="#6c63ff" r="6.891"/><path d="m286.707 598.071a1.148 1.148 0 0 0 -2.269-.36l-8.486 53.474a1.149 1.149 0 1 0 2.269.36z" fill="#fff" transform="translate(-260.412 -432.683)"/><path d="m265.967 594.78a1.149 1.149 0 0 0 -2.269-.36l-8.486 53.474a1.148 1.148 0 1 0 2.269.36z" fill="#fff" transform="translate(-246.478 -430.472)"/><path d="m306.978 480.524 1.195 4.78s4.481 12.547.6 11.95-5.676-11.352-5.676-11.352l-.6-3.884z" fill="#ffb6b6" transform="translate(-278.256 -354.601)"/><path d="m47.3 224.089-4.183-.335-12.252 34.953 14.041 24.2 9.858-7.469-10.456-17.03 8.066-21.808z" fill="#2f2e41" transform="translate(-20.737 -150.331)"/></svg>