<svg height="292.162" viewBox="0 0 442 292.162" width="442" xmlns="http://www.w3.org/2000/svg"><g fill="#3f3d56"><path d="m568.955 655.364q-18.331-2.87-35.251-4.882l4.344-8.687c-1.508-.5-8.041 4.523-8.041 4.523l5.528-25.128c-7.538 1.005-11.056 26.636-11.056 26.636l-8.543-8.544 4.206 9.673a778.876 778.876 0 0 0 -89.338-4.5l3.718-7.435c-1.508-.5-8.041 4.523-8.041 4.523l5.528-25.128c-7.538 1.005-11.056 26.636-11.056 26.636l-8.543-8.544 4.454 10.245a501.474 501.474 0 0 0 -51.272 4.129c3.71-11.557 16.664-22.666 16.664-22.666-9.961 3.1-15.143 8.148-17.825 12.828a201.809 201.809 0 0 1 10.789-69.868s-20.1 45.23-17.087 75.384l.383 5.356c-17.489 2.728-26.264 5.449-26.264 5.449z" transform="translate(-245.81 -363.201)"/><path d="m888.953 604.872a6.031 6.031 0 1 1 6.031-6.031 6.031 6.031 0 0 1 -6.031 6.031zm0-11.056a5.026 5.026 0 1 0 5.026 5.026 5.026 5.026 0 0 0 -5.026-5.026z" transform="translate(-519.737 -374.959)"/><path d="m980.93 729.281h-9.921v-9.921h9.921zm-9.158-.763h8.395v-8.395h-8.4z" transform="translate(-563.556 -437.91)"/><path d="m315.7 726.3-6.767-7.255 7.255-6.767 6.767 7.255zm-5.688-7.218 5.726 6.139 6.139-5.726-5.726-6.139z" transform="translate(-234.209 -434.388)"/><path d="m10.892 290.811h431.108v1.005h-431.108z"/><path d="m568.482 226.547v33.008a1.154 1.154 0 0 1 -1.151 1.151h-.819v171.95a17.942 17.942 0 0 1 -17.94 17.941h-107.443a17.938 17.938 0 0 1 -17.936-17.94v-165.92h-.593a.813.813 0 0 1 -.814-.809v-18.786a.814.814 0 0 1 .814-.814h.593v-7.076h-.6a.853.853 0 0 1 -.849-.854v-18.53a.852.852 0 0 1 .849-.849h.6v-9.659h-.608a.753.753 0 0 1 -.754-.754v-10.112a.757.757 0 0 1 .754-.759h.608v-20.474a17.937 17.937 0 0 1 17.936-17.936h107.442a17.941 17.941 0 0 1 17.941 17.936v48.139h.819a1.154 1.154 0 0 1 1.151 1.147z" transform="translate(-290.329 -159.325)"/></g><rect fill="#e6e8ec" height="4.064" rx="2.032" width="20.014" x="190.962" y="9.2"/><circle cx="216.306" cy="11.232" fill="#e6e8ec" r="2.305"/><path d="m568.374 190.808v253.334a11.383 11.383 0 0 1 -11.383 11.378h-102.848a11.352 11.352 0 0 1 -5.257-1.281 10.649 10.649 0 0 1 -1.106-.653 11.392 11.392 0 0 1 -5.021-9.443v-253.335a11.382 11.382 0 0 1 11.383-11.383h15.393v1.975a9.373 9.373 0 0 0 9.373 9.373h52.306a9.373 9.373 0 0 0 9.373-9.373v-1.975h16.4a11.379 11.379 0 0 1 11.383 11.383z" fill="#1e1a64" transform="translate(-300.782 -169.323)"/><path d="m568.374 610.183v36.265a11.383 11.383 0 0 1 -11.383 11.378h-102.848a11.349 11.349 0 0 1 -5.257-1.281 10.652 10.652 0 0 1 -1.106-.653 11.392 11.392 0 0 1 -5.021-9.443v-36.249a93.964 93.964 0 0 1 125.615-.017z" fill="#fff" opacity=".3" transform="translate(-300.782 -371.628)"/><path d="m568.322 688.807a11.263 11.263 0 0 1 -5.267 1.292h-102.848a11.351 11.351 0 0 1 -5.257-1.281 61.393 61.393 0 0 1 113.374-.005z" fill="#fff" opacity=".3" transform="translate(-306.846 -403.902)"/><path d="m568.094 704.8a6.815 6.815 0 0 1 -3.187.781h-62.236a6.868 6.868 0 0 1 -3.181-.776 37.15 37.15 0 0 1 68.605 0z" fill="#fff" opacity=".3" transform="translate(-329.002 -419.283)"/><path d="m710.519 420.725v14.651s1.172 16.409 7.619 24.614c0 0 10.549 14.944 12.014 11.721l-1.8-10.612-6.107-5.8-3.223-18.167-.879-16.409z" fill="#ffb8b8" transform="translate(-433.977 -289.356)"/><path d="m670.423 524.941v10.842l-8.79 3.223v-12.6z" fill="#ffb8b8" transform="translate(-329.124 -261.128)"/><path d="m639.5 522.609 5.86 13.186-8.2 3.516-1.76-12.893z" fill="#ffb8b8" transform="translate(-316.072 -259.968)"/><path d="m787.7 472.751s11.721 105.78 7.326 106.073-12.893 5.86-12.893 2.051-6.74-53.329-6.74-53.329l-6.446-25.493v35.163l6.739 39.851s-6.446 8.5-11.135 3.516l-9.963-38.972s-13.186-59.19-12.6-63.879c-.003 0 30.178-25.786 45.712-4.981z" fill="#2f2e41" transform="translate(-449.62 -311.201)"/><path d="m823.946 704.19s2.344-4.981 7.618-1.758l4.4 5.274s11.332 9.384 3.291 11.395c-8.288 2.072-13.254-.132-13.254-.132a6.407 6.407 0 0 0 -2.637-.879c-1.172 0-3.809-2.051-3.809-2.637s.879-10.969.879-10.969a1.847 1.847 0 0 1 2.051.293c.875.878 1.461-.587 1.461-.587z" fill="#2f2e41" transform="translate(-488.214 -428.949)"/><path d="m787.805 701.734s5.567-4.4 8.2.586c0 0 1.66.586 1.856 0s1.66-.879 1.66 2.344 1.591 11.262.126 11.555-2.93 1.172-2.637 2.344-1.591 1.337-8.331 1.044-7.032-2.93-7.032-2.93 0-3.809 1.758-5.86 4.4-9.083 4.4-9.083z" fill="#2f2e41" transform="translate(-469.361 -428.251)"/><path d="m755.507 321.605s-1.465 10.842 7.911 14.651-20.8 16.409-23.734 9.084.586-9.67.586-9.67 2.93-2.93.293-10.842z" fill="#ffb8b8" transform="translate(-447.905 -240.05)"/><circle cx="298.226" cy="76.281" fill="#ffb8b8" r="12.893"/><path d="m758.167 357.755s-8.791 4.688-17.288 1.172-8.2 11.721-8.2 11.721l4.4 11.428 30.474-2.93-2.051-17.581z" fill="#f2f2f2" transform="translate(-444.997 -258.032)"/><path d="m741.619 337.8a10.638 10.638 0 0 1 7.3 5.631l14.065 4.4 3.516 4.981-4.1 36.041s7.619 7.325 7.619 11.428 9.377 18.167 4.688 16.409-13.186-7.911-13.186-7.911-21.39.879-28.13 6.739-9.377 4.1-9.377 4.1-7.032-30.474-7.326-35.162-8.5-32.818-8.5-32.818l14.651-8.2 3.732-4.234 10.329 16.538 9.376-11.428s-4.629-3.643-4.657-6.514z" fill="#3f3d56" transform="translate(-432.817 -248.108)"/><path d="m824.26 412.562 1.758 9.377s7.911 29.3 6.739 39.265c0 0 .879 22.269-4.1 19.632s-2.344-18.753-2.344-18.753l-7.033-29.009-3.809-17z" fill="#ffb8b8" transform="translate(-486.184 -285.295)"/><path d="m815.774 364.168 2.93 1.758s11.135 23.149 8.5 24.907-14.065 5.567-14.065 5.567z" fill="#3f3d56" transform="translate(-485.023 -261.222)"/><path d="m553.519 205.865-6.886-.147-1.611 2.784 2.051 28.423 10.549 2.344z" fill="#3f3d56" transform="translate(-271.117 -102.333)"/><path d="m747.093 281.99 2.324-.845s-4.859-4.859-11.619-4.436l1.9-1.9s-4.648-1.69-8.873 2.746a37.745 37.745 0 0 0 -6.393 8.161h-2.489l1.039 2.077-3.635 2.077 3.731-.373a10.484 10.484 0 0 0 .353 5.38l.845 2.324s3.38-6.76 3.38-7.605v2.113s2.324-1.9 2.324-3.169l1.268 1.479.634-2.324 7.817 2.324-1.268-1.9 4.859.634-1.9-2.324s5.493 2.746 5.7 5.07a19.606 19.606 0 0 0 1.661 5.353l1.758-2.051s2.711-9.641-3.416-12.811z" fill="#2f2e41" transform="translate(-438.369 -216.613)"/><ellipse cx="309.068" cy="76.427" fill="#ffb8b8" rx="1.026" ry="2.637"/><path d="m198.023 681.208c6.246 11.583 19.5 16.556 19.5 16.556s3.129-13.808-3.117-25.391-19.5-16.556-19.5-16.556-3.129 13.808 3.117 25.391z" fill="#3f3d56" transform="translate(-177.1 -406.3)"/><path d="m185.467 694.057c11.277 6.784 15.62 20.26 15.62 20.26s-13.94 2.476-25.217-4.308-15.62-20.26-15.62-20.26 13.94-2.476 25.217 4.308z" fill="#6c63ff" transform="translate(-160.25 -422.96)"/><circle cx="204.918" cy="277.751" fill="#fff" r="5.528"/><text fill="#1e9b15" font-family="CormorantUpright-Regular, Cormorant Upright" font-size="20" transform="translate(155 148)"><tspan x="9.93" y="18">Greeneva</tspan></text></svg>