<svg height="212" viewBox="0 0 295.879 212" width="295.879" xmlns="http://www.w3.org/2000/svg"><path d="m782.533 708.317h-122.952a.408.408 0 0 1 0-.817h122.952a.408.408 0 1 1 0 .817z" fill="#3f3d56" transform="translate(-487.062 -496.317)"/><path d="m524.716 479.576h-5.008l-2.383-19.316h7.391z" fill="#ffb8b8" transform="translate(-306.01 -272.254)"/><path d="m505.6 504.045h9.658v6.081h-15.743a6.081 6.081 0 0 1 6.085-6.081z" fill="#2f2e41" transform="translate(-295.474 -298.154)"/><path d="m603.017 468.218-4.555 2.08-10.193-16.58 6.723-3.071z" fill="#ffb8b8" transform="translate(-347.974 -266.568)"/><path d="m6.081 0h9.658v6.081h-15.739a6.081 6.081 0 0 1 6.081-6.081z" fill="#2f2e41" transform="matrix(.90961354 -.41545542 .41545542 .90961354 241.107 206.443)"/><path d="m816.891 510.154a4.107 4.107 0 0 0 .327-6.29l5.887-13.357-7.479 1.267-4.444 12.49a4.13 4.13 0 0 0 5.708 5.89z" fill="#ffb8b8" transform="translate(-576.432 -367.961)"/><path d="m755.547 579.366h-4.784a1.845 1.845 0 0 1 -1.833-1.7l-5.06-69.669a1.838 1.838 0 0 1 2.012-1.963l30.118 2.934a1.839 1.839 0 0 1 1.659 1.795l.58 30.732a1.427 1.427 0 0 0 .1.487l11.35 29.432a1.838 1.838 0 0 1 -1.08 2.386l-4.848 1.786a1.839 1.839 0 0 1 -2.27-.884l-13.943-27.11a1.832 1.832 0 0 1 -.165-.467l-2.383-11.476a1.43 1.43 0 0 0 -2.82.128l-4.8 41.96a1.838 1.838 0 0 1 -1.833 1.629z" fill="#2f2e41" transform="translate(-537.16 -377.138)"/><circle cx="220.77" cy="66.348" fill="#ffb8b8" r="10.033"/><path d="m748.551 437.162c1.284.886 15.754 10.421 32.246 2.837-.214-1.842-2.272-20.334-.474-33.966a17.24 17.24 0 0 0 -7.066-16.44 20.315 20.315 0 0 0 -20.432-2.206q-.406.182-.818.379z" fill="#6c63ff" transform="translate(-539.932 -305.905)"/><path d="m817.876 456.6a1.833 1.833 0 0 1 -1.353-.6l-2.195-2.394a1.847 1.847 0 0 1 -.408-1.763l5.026-17.012-7.648-16.06a3.394 3.394 0 0 1 6.053-3.068l10.338 16.775a4.677 4.677 0 0 1 .282 4.383l-8.419 18.653a1.834 1.834 0 0 1 -1.385 1.059 1.862 1.862 0 0 1 -.293.024z" fill="#6c63ff" transform="translate(-576.854 -322.66)"/><path d="m760.923 465.4h-4.008l7-32.925.4.053-1.556 31.126a1.837 1.837 0 0 1 -1.836 1.746z" opacity=".2" transform="translate(-544.879 -333.634)"/><path d="m747.132 503.419a4.108 4.108 0 0 0 -.986-6.221l2.985-14.288-7.052 2.793-1.754 13.14a4.13 4.13 0 0 0 6.807 4.576z" fill="#ffb8b8" transform="translate(-534.796 -363.467)"/><path d="m747.8 440.067a1.907 1.907 0 0 1 -.207-.012l-4.275-.475a1.844 1.844 0 0 1 -1.634-1.9l1.769-42.8a5.526 5.526 0 0 1 10.92-.946l1.139 5.241-.006.037-5.892 39.288a1.832 1.832 0 0 1 -1.814 1.567z" fill="#6c63ff" transform="translate(-535.869 -308.26)"/><path d="m767.739 341.438c-1.04.178-1.9-1.27-2.026-2.288a17.917 17.917 0 0 1 .282-3.006 2.465 2.465 0 0 0 -1.488-2.542c-1.1-.315-2.123.569-3.251.463-1.572-.148-2.361-1.988-2.551-3.476s-.34-3.25-1.7-4.1-3.036-.23-4.6-.2a6.276 6.276 0 0 1 -5.934-4.445 1.5 1.5 0 0 0 1.705-.683 1.513 1.513 0 0 0 -.455-1.788l2.987 1.463a1.6 1.6 0 0 1 1.057-2.092 5.642 5.642 0 0 1 2.773-.028c4.677.727 10.095.368 13.2 3.935 2.149 2.47 3.918 7.171 3.676 10.212s-3.675 8.575-3.675 8.575z" fill="#2f2e41" transform="translate(-538.703 -266.246)"/><path d="m353.018 378.808h-107.43a2.863 2.863 0 0 1 -2.859-2.859l-4.9-182.579a2.865 2.865 0 0 1 2.859-2.87h107.43a2.863 2.863 0 0 1 2.859 2.859l.888 33.076-.817.022-.888-33.087a2.047 2.047 0 0 0 -2.042-2.053h-107.432a2.045 2.045 0 0 0 -2.042 2.042l4.9 182.579a2.047 2.047 0 0 0 2.043 2.053h107.43a2.045 2.045 0 0 0 2.042-2.042l-.954-35.527.817-.022.954 35.538a2.865 2.865 0 0 1 -2.859 2.87z" fill="#ccc" transform="translate(-237.827 -190.5)"/><path d="m0 0h.817v15.685h-.817z" fill="#ccc" transform="matrix(1 -.027 .027 1 114.536 84.974)"/><path d="m357.946 386.019h-88.99a2.442 2.442 0 0 1 -2.439-2.439l-4.06-151.239a2.444 2.444 0 0 1 2.439-2.45h88.991a2.441 2.441 0 0 1 2.439 2.439l.735 17.4-.816.034-.736-17.417a1.628 1.628 0 0 0 -1.622-1.639h-88.987a1.624 1.624 0 0 0 -1.622 1.622l4.06 151.239a1.626 1.626 0 0 0 1.622 1.633h88.99a1.624 1.624 0 0 0 1.622-1.622l-.526-19.857.817-.022.526 19.868a2.443 2.443 0 0 1 -2.439 2.449z" fill="#ccc" transform="translate(-252.396 -213.801)"/><path d="m0 0h.817v15.528h-.817z" fill="#ccc" transform="matrix(.99964998 -.0264561 .0264561 .99964998 104.938 85.383)"/><path d="m396.852 327.334h-104.162a2.863 2.863 0 0 1 -2.859-2.836l-1.631-44.139a2.863 2.863 0 0 1 2.859-2.859h104.159a2.862 2.862 0 0 1 2.859 2.836l1.634 44.139a2.862 2.862 0 0 1 -2.859 2.859zm-107.838-47 1.634 44.137a2.045 2.045 0 0 0 2.042 2.042h104.162a2.045 2.045 0 0 0 2.042-2.021l-1.634-44.137a2.045 2.045 0 0 0 -2.042-2.042h-104.162a2.045 2.045 0 0 0 -2.042 2.021z" fill="#3f3d56" transform="translate(-267.622 -241.962)"/><path d="m444.852 486.334h-104.162a2.862 2.862 0 0 1 -2.859-2.836l-1.631-44.139a2.863 2.863 0 0 1 2.859-2.859h104.159a2.863 2.863 0 0 1 2.859 2.836l1.634 44.139a2.863 2.863 0 0 1 -2.859 2.859zm-107.838-47 1.634 44.137a2.045 2.045 0 0 0 2.042 2.042h104.162a2.045 2.045 0 0 0 2.042-2.021l-1.634-44.137a2.045 2.045 0 0 0 -2.042-2.042h-104.162a2.045 2.045 0 0 0 -2.042 2.021z" fill="#3f3d56" transform="translate(-296.015 -336.014)"/><g fill="#6c63ff"><path d="m403.852 460a2.655 2.655 0 0 0 0 5.31h53.1a2.655 2.655 0 1 0 0-5.31z" transform="translate(-334.464 -349.915)"/><path d="m403.852 491a2.655 2.655 0 0 0 0 5.31h53.1a2.655 2.655 0 1 0 0-5.31z" transform="translate(-334.464 -368.252)"/><path d="m403.852 522a2.655 2.655 0 0 0 0 5.31h53.1a2.655 2.655 0 1 0 0-5.31z" transform="translate(-334.464 -386.59)"/><path d="m355.852 301a2.655 2.655 0 0 0 0 5.31h53.1a2.655 2.655 0 1 0 0-5.31z" transform="translate(-306.071 -255.863)"/><path d="m355.852 332a2.655 2.655 0 0 0 0 5.31h53.1a2.655 2.655 0 1 0 0-5.31z" transform="translate(-306.071 -274.2)"/><path d="m355.852 363a2.655 2.655 0 0 0 0 5.31h53.1a2.655 2.655 0 1 0 0-5.31z" transform="translate(-306.071 -292.538)"/></g><circle cx="57.338" cy="8.17" fill="#e6e6e6" r="4.085"/></svg>