<svg height="603.224" viewBox="0 0 406.683 603.224" width="406.683" xmlns="http://www.w3.org/2000/svg"><path d="m696.282 281.52a26.165 26.165 0 0 1 -17.987-4.772 49.343 49.343 0 0 1 -12.9-13.836 89.653 89.653 0 0 1 -12.623-29.333 17.2 17.2 0 0 1 -16.754 5.829c-9.98-2.241-15.965-13.885-14.019-23.927s10.185-18 19.586-22.033 19.878-4.7 30.107-4.673c6.745.015 13.618.33 19.954 2.643s12.14 6.924 14.39 13.282c1.411 3.986 1.365 8.4 2.969 12.31 2.913 7.1 10.468 10.981 17.558 13.924s14.8 5.931 18.979 12.369c4.721 7.27 3.359 17.417-1.844 24.35s-13.56 10.954-22.064 12.635-17.265 1.265-25.924.843" fill="#3c3c3c" transform="translate(-431.033 -188.775)"/><path d="m423.54 442.509 27.943-12.118-15.162-31.207-22.566 13.206z" fill="#737373" transform="translate(-80.885 106.941)"/><path d="m419.742 320.827 26.988 54.894 47.626 96.879 49.1-23.6-54.202-126.9-.154-15.975-.484-49.71z" fill="#3d3d3d" transform="translate(-180.455 68.613)"/><path d="m546.937 419.851 28.7 10.2 10.2-33.162-25.509-5.739z" fill="#737373" transform="translate(-384.177 104.786)"/><path d="m717.637 383.715 86.73-24.871-25.509-17.218-66.958 21.045-30.278 7.267a14.963 14.963 0 0 0 -10.158 20.678 14.963 14.963 0 0 0 20.845 6.991z" fill="#737373" transform="translate(-548.5 -147.819)"/><path d="m678.76 363.319 35.075 20.407c3.1-25.521-12.164-70.95-31.248-120.529a38.138 38.138 0 0 0 -15.423 36.018z" fill="#fbfbfb" transform="translate(-454.141 -168.839)"/><path d="m583.139 398.14.737 26.177a15.1 15.1 0 0 0 19 14.157 15.1 15.1 0 0 0 9.821-20.864l-9.785-21.383-30.611-72.7-21.045 7.653z" fill="#737373" transform="translate(-207.38 -152.677)"/><ellipse cx="233.228" cy="41.153" fill="#737373" rx="27.422" ry="27.422"/><path d="m507 88.74 31.885-15.305-15.94-35.713-26.785 5.1z" fill="#737373" transform="translate(-272.817 10.127)"/><path d="m652.4 401.465 65.048-15.943-13.065-119.734a21.062 21.062 0 0 0 -22.845-18.688l-21.488 1.953-29.335 13.392-10.841 11.475 3.308 14.147c-3.084 29.137-.707 54.421 16.234 69.425z" fill="#fbfbfb" transform="translate(-397.806 -173.141)"/><path d="m637.184 355.81 33.8-8.928-45.314-75.051a48.473 48.473 0 0 0 -46.518-23.158l17.218 56.757c15.92 12.013 29.295 29.281 40.814 50.38z" fill="#fbfbfb" transform="translate(-299.688 -172.764)"/><path d="m604.657 646.014 51.655 15.305c62.9-102.115 152.968-212.163 117.978-285.7l-12.754-29.973-66.323 20.407-3.826 79.077-40.815 63.77z" fill="#3d3d3d" transform="translate(-443.172 -146.887)"/><g fill="#3c3c3c"><path d="m728.564 647.889 45.906-.451a16.536 16.536 0 0 0 16.43-16.538v-22.882a5.276 5.276 0 0 0 -6.837-5.06c-8.292 2.658-15.081 1.773-20.2-3.046-3.069-2.889-3.427-3.469-7.08-1.367l-20.726 22.639-8.405.542a13.1 13.1 0 0 0 -12.216 12.089 13.095 13.095 0 0 0 13.131 14.074z" transform="translate(-592.425 -79.329)"/><path d="m586.487 677.068 32.142-32.78a16.535 16.535 0 0 0 -.076-23.308l-16.183-16.18a5.275 5.275 0 0 0 -8.413 1.256c-3.984 7.743-9.41 11.918-16.437 12.13-4.213.128-4.877-.03-5.974 4.04l1.353 30.664-5.56 6.327a13.1 13.1 0 0 0 -.09 17.185 13.1 13.1 0 0 0 19.237.667z" transform="translate(-232.985 -77.731)"/><path d="m672.251 221.738a32.83 32.83 0 0 1 -15.913 13.132c-4.659 1.794-10.57 2.24-14.067-1.323-2.533-2.581-3.038-6.553-2.678-10.152 1.122-11.232 9.563-21.012 20.037-25.22s22.565-3.288 33.017.972c9.862 4.02 19.228 12.255 19.758 22.892.272 5.451-1.7 11.453 1.224 16.06 2.2 3.47 6.46 4.88 10.273 6.416s7.9 3.961 8.687 8a8.948 8.948 0 0 1 -2.625 7.628 20.711 20.711 0 0 1 -7.052 4.421c-6.218 2.647-13.062 4.3-19.741 3.274s-13.139-5.091-15.753-11.323c-2.013-4.8-1.6-10.214-1.368-15.413s.162-10.736-2.614-15.137-9.22-6.866-13.369-3.724" transform="translate(-437.916 -186.983)"/></g><path d="m7.87 26.984h65.015a34.854 34.854 0 1 1 0 15.74h-16.669v5.622a7.87 7.87 0 0 1 -15.74 0v-5.622h-11.244v14.616a7.87 7.87 0 0 1 -15.741 0v-14.616h-5.621a7.87 7.87 0 1 1 0-15.74zm98.94 26.984a19.113 19.113 0 1 0 -19.11-19.114 19.135 19.135 0 0 0 19.11 19.113z" fill="#3d3d3d" transform="matrix(.8660254 .5 -.5 .8660254 34.853 128.938)"/></svg>